<svg version="1.1" id="Layer_1" xmlns="http://www.w3.org/2000/svg" xmlns:xlink="http://www.w3.org/1999/xlink" x="0px" y="0px"
	 width="100%" viewBox="0 0 500 500" enable-background="new 0 0 500 500" xml:space="preserve">
<path fill="#000000" opacity="1.000000" stroke="none" 
	d="
M331.000000,501.000000 
	C220.666687,501.000000 110.833389,501.000000 1.000059,501.000000 
	C1.000039,334.333405 1.000039,167.666794 1.000020,1.000148 
	C167.666565,1.000099 334.333130,1.000099 500.999756,1.000049 
	C500.999847,167.666519 500.999847,334.333038 500.999939,500.999786 
	C444.500000,501.000000 388.000000,501.000000 331.000000,501.000000 
M155.011749,173.001648 
	C155.011749,173.001648 155.004166,172.977509 154.628281,173.088089 
	C154.484665,173.163162 154.214508,173.250458 154.220367,173.311096 
	C154.240723,173.521942 154.356796,173.723511 154.012177,174.509491 
	C152.893799,175.921432 151.599899,177.228760 150.685699,178.762421 
	C145.022873,188.262329 142.025330,198.662918 141.305466,209.609497 
	C139.930908,230.511673 145.992264,248.838104 161.347183,264.425293 
	C168.536041,271.069580 175.876282,277.475891 186.230911,280.312378 
	C204.729889,286.015381 222.614288,284.414337 240.612396,275.767334 
	C245.330475,272.171234 250.711197,269.177124 254.634262,264.858765 
	C263.961182,254.592041 270.519775,242.452484 276.449005,229.337051 
	C278.543732,225.128357 280.638489,220.919678 282.622192,216.934082 
	C286.279205,218.778000 289.186584,220.243942 292.449066,222.201233 
	C293.334106,222.647690 294.219177,223.094162 295.424957,224.176514 
	C296.081116,224.412170 296.737305,224.647827 297.868439,225.299164 
	C302.060638,227.121506 306.252869,228.943848 310.049561,231.465942 
	C306.977661,231.149063 303.905792,230.832199 300.833893,230.515320 
	C301.743347,232.588425 302.803223,233.634735 304.070312,234.263184 
	C310.922241,237.661621 317.840668,240.885818 326.703552,238.897354 
	C329.399109,238.235580 332.094635,237.573807 335.534760,236.813934 
	C340.516449,235.002731 345.021179,232.618652 347.602112,227.498856 
	C341.762360,229.746262 336.347870,231.830002 329.776978,233.651962 
	C328.245728,233.760239 326.714478,233.868530 325.048065,233.871292 
	C325.048065,233.871292 325.238098,233.845291 324.464996,234.185120 
	C323.653290,234.407669 322.841553,234.630219 321.742340,234.169952 
	C319.290375,233.899612 316.789490,233.831650 314.411316,233.256302 
	C313.499084,233.035599 312.866943,231.657120 312.915466,230.691071 
	C320.347717,231.513687 327.777161,232.300781 335.626099,228.853104 
	C342.882568,226.284912 348.319000,221.574997 352.690613,214.639450 
	C354.420441,210.671814 356.150299,206.704178 358.492584,202.309875 
	C361.573364,189.451035 359.029358,177.597702 351.568420,166.892731 
	C349.225433,163.530991 347.447083,158.970291 341.816010,158.238022 
	C340.135925,156.721741 338.703857,154.536224 336.732574,153.805771 
	C328.489014,150.750992 319.993317,149.076187 310.321747,151.064590 
	C307.255707,151.075012 304.189636,151.085434 300.339355,151.268997 
	C296.922821,152.613617 293.506256,153.958252 289.400787,155.415359 
	C286.319122,157.304276 283.237488,159.193207 280.082611,161.078094 
	C280.082611,161.078094 280.049744,161.143616 279.587341,161.245529 
	C279.288055,161.421875 279.133820,161.683716 278.554382,162.374908 
	C276.775391,163.681473 274.996368,164.988037 272.540741,166.460327 
	C271.515930,167.429077 270.491119,168.397827 268.883270,169.076721 
	C265.774597,166.766342 262.665955,164.455978 259.269409,161.587265 
	C253.686005,158.409454 248.102615,155.231644 242.248413,151.456055 
	C240.512512,150.698044 238.776611,149.940033 236.948898,148.628403 
	C235.035645,148.185837 233.122406,147.743271 230.877686,147.111938 
	C230.877686,147.111938 230.496277,147.105774 230.345139,146.736877 
	C229.991241,146.801422 229.637329,146.865967 228.316956,146.505325 
	C227.992432,146.369095 227.667908,146.232864 227.490051,145.939468 
	C227.490051,145.939468 227.360687,145.835144 227.360687,145.835144 
	C227.360687,145.835144 227.423004,146.099670 226.584427,145.947723 
	C226.020218,145.882935 225.456024,145.818161 224.701492,145.128265 
	C222.914246,145.040314 221.126999,144.952362 218.477905,144.630859 
	C217.884140,144.586151 217.290375,144.541443 216.255905,143.839539 
	C197.946426,141.838959 181.666229,146.949951 167.571136,158.530823 
	C163.266953,162.067245 160.047729,166.924179 156.198669,171.181458 
	C156.198669,171.181458 156.186996,171.314026 155.598587,171.428055 
	C155.395676,171.956833 155.192780,172.485611 155.011749,173.001648 
M350.549194,312.381348 
	C344.129974,312.513092 340.451202,315.742523 340.364929,321.321777 
	C340.287323,326.337982 344.070801,330.663910 348.813019,330.564331 
	C352.634918,330.484131 356.447021,329.935669 360.445648,329.578705 
	C360.445648,320.230927 360.445648,310.864868 360.445648,301.379089 
	C358.401398,301.379089 356.648804,301.379089 354.440125,301.379089 
	C354.440125,304.726898 354.346985,307.851959 354.467590,310.968781 
	C354.577667,313.813690 353.091034,313.355682 350.549194,312.381348 
M257.792084,305.847595 
	C257.792084,308.294281 257.792084,310.740967 257.792084,313.548401 
	C256.001068,313.030914 254.789062,312.531372 253.530487,312.343323 
	C248.519257,311.594421 244.150818,315.333099 243.771683,320.603149 
	C243.380585,326.039490 246.895950,330.622803 251.824341,330.568024 
	C255.736313,330.524597 259.641754,329.892029 263.669434,329.509705 
	C263.669434,320.266357 263.669434,310.889130 263.669434,301.331726 
	C261.647949,301.331726 259.888519,301.331726 258.005798,301.331726 
	C257.928528,302.655060 257.861481,303.803650 257.792084,305.847595 
M189.226395,307.668579 
	C189.226395,305.572357 189.226395,303.476166 189.226395,301.071320 
	C186.872330,301.197632 185.131958,301.290985 183.273666,301.390686 
	C183.273666,311.063690 183.273666,320.333313 183.273666,329.812683 
	C185.234329,329.812683 187.007416,329.812683 188.893997,329.812683 
	C189.134979,328.108734 189.374329,326.416229 189.743011,323.809204 
	C193.506653,328.319916 197.086884,331.779755 203.822769,329.210022 
	C200.646469,326.376465 197.756516,323.798370 193.411667,319.922394 
	C196.791916,317.453247 199.499100,315.475739 202.206268,313.498260 
	C201.877472,312.939484 201.548676,312.380737 201.219879,311.821960 
	C197.236618,313.431366 193.253372,315.040741 189.226364,316.667816 
	C189.226364,314.242493 189.226364,311.424530 189.226395,307.668579 
M221.832870,312.312073 
	C216.851578,313.300385 213.613251,316.175049 213.466385,321.350922 
	C213.347610,325.537537 215.643600,328.676880 219.721466,329.979340 
	C224.378448,331.466858 228.484131,330.582886 232.501938,325.168549 
	C229.492233,325.168549 227.501968,325.289673 225.533691,325.133514 
	C223.675766,324.986084 221.840973,324.546936 219.996002,324.236145 
	C220.089539,323.625061 220.183075,323.013947 220.276596,322.402863 
	C224.147278,322.402863 228.017960,322.402863 231.869812,322.402863 
	C231.766296,315.268829 229.808487,313.237854 221.832870,312.312073 
M375.217194,315.830597 
	C372.137726,321.273254 372.835327,325.928162 377.177063,328.907623 
	C381.641266,331.971191 387.310242,330.945770 392.219818,325.167358 
	C389.283508,325.167358 387.300995,325.284210 385.339050,325.133362 
	C383.501740,324.992126 381.686249,324.567352 379.861145,324.267334 
	C379.952911,323.641357 380.044678,323.015350 380.136444,322.389374 
	C383.994263,322.389374 387.852051,322.389374 391.748383,322.389374 
	C392.175751,317.910522 390.666382,314.923401 387.163208,313.303802 
	C383.017944,311.387421 379.082428,311.971832 375.217194,315.830597 
M308.563507,320.000244 
	C308.644287,327.102081 312.587341,330.999603 319.313507,330.626038 
	C325.570129,330.278595 329.662415,325.992310 328.956512,320.345520 
	C328.346527,315.466461 325.000000,313.250183 320.551147,312.432770 
	C315.270996,311.462616 311.074463,313.961517 308.563507,320.000244 
M292.302002,313.048157 
	C287.433533,313.048157 282.565063,313.048157 278.004181,313.048157 
	C278.004181,319.040161 278.004181,324.439453 278.004181,330.077393 
	C280.097107,329.972015 281.841492,329.884186 283.858398,329.782654 
	C283.858398,326.594696 283.517212,323.726929 283.999664,321.005157 
	C284.247925,319.604584 285.963593,318.464111 287.016174,317.206085 
	C288.031982,318.465088 289.707397,319.619843 289.926270,321.004791 
	C290.381073,323.882751 290.063660,326.882751 290.063660,329.827820 
	C292.361420,329.827820 294.143738,329.827820 296.181641,329.827820 
	C296.181641,327.148499 296.190521,324.660370 296.179474,322.172272 
	C296.164825,318.863953 296.659637,315.367249 292.302002,313.048157 
M164.683350,312.697571 
	C160.258453,312.697571 155.833572,312.697571 151.374054,312.697571 
	C151.374054,318.787750 151.374054,324.324921 151.374054,329.797119 
	C153.444046,329.797119 155.212372,329.797119 157.217621,329.797119 
	C157.217621,327.262604 156.820297,324.856537 157.336334,322.665588 
	C157.795349,320.716736 159.119446,317.582977 160.318665,317.459076 
	C163.831284,317.096252 163.539764,320.334076 163.603012,322.788666 
	C163.662277,325.089233 163.615692,327.392548 163.615692,329.669495 
	C165.847916,329.669495 167.725235,329.669495 169.809402,329.669495 
	C169.809402,326.020203 170.358093,322.594635 169.631302,319.465302 
	C169.075699,317.073059 166.906479,315.055573 164.683350,312.697571 
M117.216911,327.014771 
	C117.216911,318.456451 117.216911,309.898102 117.216911,301.060333 
	C114.793930,301.199066 113.063950,301.298096 111.275513,301.400482 
	C111.275513,311.121979 111.275513,320.379578 111.275513,331.127899 
	C113.721947,329.804993 115.468040,328.860809 117.216911,327.014771 
M131.081863,324.376160 
	C131.081863,326.165558 131.081863,327.954956 131.081863,329.856689 
	C133.343933,329.856689 135.130997,329.856689 137.070526,329.856689 
	C137.070526,324.226776 137.070526,318.762085 137.070526,313.167542 
	C135.075714,313.167542 133.203995,313.167542 131.081818,313.167542 
	C131.081818,316.796539 131.081818,320.106750 131.081863,324.376160 
M136.488388,308.690063 
	C136.515884,306.833862 136.791168,304.920044 136.383224,303.165070 
	C136.290207,302.764893 133.330536,302.322571 132.592529,302.954041 
	C131.595505,303.807190 130.667358,306.499878 131.130096,306.953125 
	C132.280472,308.080017 134.235550,308.385376 136.488388,308.690063 
z"/>
<path fill="#9606CC" opacity="1.000000" stroke="none" 
	d="
M310.445068,230.766205 
	C306.252869,228.943848 302.060638,227.121506 297.734924,224.892517 
	C296.768982,224.170776 295.936615,223.855713 295.104218,223.540634 
	C294.219177,223.094162 293.334106,222.647690 292.223907,221.626740 
	C289.058075,216.998596 283.652802,214.405823 284.373901,208.155243 
	C284.413544,207.811676 283.818542,207.362854 283.470154,207.011444 
	C278.715698,202.216187 273.999725,197.381470 269.176971,192.655762 
	C265.300659,188.857483 260.708984,185.623367 257.542877,181.323059 
	C255.340225,178.331329 252.698334,174.433090 255.323883,170.000366 
	C267.517242,180.608231 279.124695,191.475983 291.322632,201.634720 
	C297.194397,206.524811 304.179657,210.077850 310.802704,214.575989 
	C311.576477,215.422516 312.244202,216.407150 312.834473,216.362747 
	C319.022461,215.897064 322.021729,221.230988 325.626648,224.381119 
	C328.605774,226.984360 330.717712,229.477554 334.883392,228.967758 
	C327.777161,232.300781 320.347717,231.513687 312.479706,230.774231 
	C312.043945,230.857391 312.064270,230.937332 312.019836,230.586197 
	C311.463409,230.469116 310.951416,230.703171 310.447632,230.894684 
	C310.455841,230.852158 310.445068,230.766205 310.445068,230.766205 
z"/>
<path fill="#F504DC" opacity="1.000000" stroke="none" 
	d="
M335.254761,228.910431 
	C330.717712,229.477554 328.605774,226.984360 325.626648,224.381119 
	C322.021729,221.230988 319.022461,215.897064 312.834473,216.362747 
	C312.244202,216.407150 311.576477,215.422516 311.246704,214.545166 
	C322.482269,216.835251 331.119537,213.032394 338.076965,202.494705 
	C342.182220,196.276917 342.318695,190.803741 338.040527,185.620010 
	C339.827454,192.313766 339.580353,198.480865 334.073730,203.363098 
	C329.488678,207.428238 321.621765,208.395859 316.451599,205.417572 
	C328.141327,204.871048 333.081970,201.166565 333.549347,192.203537 
	C333.712158,189.080811 332.682343,185.895920 332.485901,182.592865 
	C336.826965,183.406586 340.879333,184.366882 344.998383,185.602737 
	C345.697418,186.188461 346.329803,186.498627 347.173523,187.034912 
	C347.922058,187.568695 348.459198,187.876358 349.124908,188.498459 
	C355.939392,196.881271 358.111908,205.437134 352.068817,214.880295 
	C348.319000,221.574997 342.882568,226.284912 335.254761,228.910431 
z"/>
<path fill="#483CE8" opacity="1.000000" stroke="none" 
	d="
M161.073517,263.805481 
	C145.992264,248.838104 139.930908,230.511673 141.305466,209.609497 
	C142.025330,198.662918 145.022873,188.262329 150.685699,178.762421 
	C151.599899,177.228760 152.893799,175.921432 154.401428,174.121643 
	C154.989441,173.517746 155.060608,173.265656 155.004166,172.977509 
	C155.004166,172.977509 155.011749,173.001648 155.244598,172.879852 
	C155.713974,172.276703 155.950485,171.795364 156.186996,171.314026 
	C156.186996,171.314026 156.198669,171.181458 156.584076,171.094666 
	C162.268539,167.605209 167.567612,164.202545 172.797363,161.097443 
	C172.507751,161.948669 172.287476,162.502319 172.039780,163.035522 
	C172.012375,163.015091 172.045456,163.074936 171.692459,163.054672 
	C170.579544,164.033920 169.819611,165.033432 169.042740,166.030136 
	C169.025787,166.027328 169.022964,166.061569 168.686768,166.029053 
	C167.254486,167.014145 166.158386,168.031723 165.036530,169.027527 
	C165.010773,169.005737 165.045105,169.063568 164.728943,169.178955 
	C163.540054,170.570358 162.667328,171.846375 161.620117,173.412460 
	C159.874954,176.794891 158.443985,179.968094 156.709747,182.965836 
	C148.651413,196.895020 148.689606,211.233368 154.257553,226.274292 
	C157.434647,232.774704 160.686020,238.901840 163.533035,245.047073 
	C162.429611,245.786331 161.145874,246.490814 161.124741,247.231354 
	C160.967072,252.752045 161.059509,258.279877 161.073517,263.805481 
z"/>
<path fill="#570AAC" opacity="1.000000" stroke="none" 
	d="
M254.980698,169.968781 
	C252.698334,174.433090 255.340225,178.331329 257.542877,181.323059 
	C260.708984,185.623367 265.300659,188.857483 269.176971,192.655762 
	C273.999725,197.381470 278.715698,202.216187 283.470154,207.011444 
	C283.818542,207.362854 284.413544,207.811676 284.373901,208.155243 
	C283.652802,214.405823 289.058075,216.998596 292.046387,221.381073 
	C289.186584,220.243942 286.279205,218.778000 282.622192,216.934082 
	C280.638489,220.919678 278.543732,225.128357 276.123505,229.132599 
	C275.048065,222.170410 274.225342,215.438705 268.950745,209.963959 
	C268.193817,209.111816 267.596405,208.539093 266.990417,207.570404 
	C267.508972,203.295135 265.541992,201.097687 261.915955,199.611420 
	C258.465851,196.445190 255.181290,193.574936 251.860260,190.393768 
	C251.025864,189.301254 250.268539,188.472443 249.423416,187.745758 
	C243.948776,183.038452 237.483643,179.136856 237.227463,170.600525 
	C237.113434,166.800629 234.195129,165.454269 230.875458,164.624634 
	C230.950638,162.209152 230.969528,160.161026 231.342865,158.211700 
	C234.815643,159.177887 237.934006,160.045303 241.395569,160.977890 
	C245.533768,163.561432 249.328751,166.079834 253.395447,168.715576 
	C254.104980,169.211533 254.542847,169.590164 254.980698,169.968781 
z"/>
<path fill="#A838E5" opacity="1.000000" stroke="none" 
	d="
M269.110229,210.243362 
	C274.225342,215.438705 275.048065,222.170410 275.857300,229.315323 
	C270.519775,242.452484 263.961182,254.592041 254.634262,264.858765 
	C250.711197,269.177124 245.330475,272.171234 240.311371,275.446777 
	C247.443115,267.896118 247.184357,264.264771 243.016434,258.224243 
	C244.042419,256.271881 245.016251,254.614273 245.997864,252.978302 
	C246.005630,252.999954 245.960754,252.989883 246.262115,252.987549 
	C247.042450,252.666245 247.521423,252.347275 248.153366,251.705719 
	C251.747589,247.638809 249.231674,246.042587 246.073364,244.487213 
	C247.394409,243.159027 248.551926,242.080627 249.984619,240.909393 
	C250.508194,240.531631 250.756592,240.246704 251.007050,239.985641 
	C251.009094,240.009506 250.961426,240.004608 251.212067,239.859406 
	C251.642838,239.375946 251.822952,239.037689 252.170868,238.424194 
	C257.929199,228.847076 263.519714,219.545227 269.110229,210.243362 
z"/>
<path fill="#F734E8" opacity="1.000000" stroke="none" 
	d="
M242.964294,258.518982 
	C247.184357,264.264771 247.443115,267.896118 239.959259,275.460999 
	C222.614288,284.414337 204.729889,286.015381 186.299576,280.036774 
	C186.292328,277.865723 186.370117,275.948792 186.108551,274.079346 
	C185.562164,270.174347 187.714157,267.256104 191.644455,266.922760 
	C193.118423,266.797791 194.605865,266.831879 196.493103,266.861450 
	C202.928925,267.634369 208.958817,268.339264 215.396118,269.090820 
	C217.629196,268.840332 219.454834,268.543182 221.620239,268.228149 
	C222.630753,268.097717 223.301483,267.985229 224.348358,267.909393 
	C225.882278,267.354187 227.040039,266.762299 228.406799,266.128967 
	C228.615799,266.087555 229.013443,265.934387 229.380295,265.956848 
	C234.152863,263.492523 238.558578,261.005768 242.964294,258.518982 
z"/>
<path fill="#F734E8" opacity="1.000000" stroke="none" 
	d="
M255.323883,170.000366 
	C254.542847,169.590164 254.104980,169.211533 253.344421,168.410675 
	C252.300003,163.604630 254.621796,161.528961 259.557312,162.145599 
	C262.665955,164.455978 265.774597,166.766342 269.326599,169.527313 
	C272.045258,171.837234 274.320618,173.696579 276.677795,175.860092 
	C278.133148,177.401245 279.506653,178.638229 281.043274,180.179291 
	C282.788422,182.601318 284.370422,184.719254 286.246399,187.021271 
	C288.990326,189.440292 291.440277,191.675201 294.029480,194.225616 
	C299.354462,200.258591 306.069977,203.278702 313.315796,205.479218 
	C313.331512,205.566956 313.570740,205.627655 313.570740,205.627655 
	C313.570740,205.627655 313.727814,205.438110 314.108887,205.356567 
	C315.000153,205.355026 315.510376,205.435028 316.020599,205.515015 
	C321.621765,208.395859 329.488678,207.428238 334.073730,203.363098 
	C339.580353,198.480865 339.827454,192.313766 338.040527,185.620010 
	C342.318695,190.803741 342.182220,196.276917 338.076965,202.494705 
	C331.119537,213.032394 322.482269,216.835251 311.104675,214.205536 
	C304.179657,210.077850 297.194397,206.524811 291.322632,201.634720 
	C279.124695,191.475983 267.517242,180.608231 255.323883,170.000366 
z"/>
<path fill="#A838E5" opacity="1.000000" stroke="none" 
	d="
M196.087173,266.793457 
	C194.605865,266.831879 193.118423,266.797791 191.644455,266.922760 
	C187.714157,267.256104 185.562164,270.174347 186.108551,274.079346 
	C186.370117,275.948792 186.292328,277.865723 186.048248,279.847290 
	C175.876282,277.475891 168.536041,271.069580 161.210358,264.115387 
	C161.059509,258.279877 160.967072,252.752045 161.124741,247.231354 
	C161.145874,246.490814 162.429611,245.786331 163.670990,245.341034 
	C165.767395,247.103851 167.321487,248.590775 168.988739,250.305374 
	C169.385742,250.705109 169.669571,250.877167 169.975555,251.038940 
	C169.997711,251.028656 169.953888,251.062805 170.079391,251.381348 
	C172.889587,254.029495 175.274475,256.909668 178.323608,258.570038 
	C184.041840,261.683868 190.144440,264.091888 196.087173,266.793457 
z"/>
<path fill="#F1F1F4" opacity="1.000000" stroke="none" 
	d="
M350.961853,312.526367 
	C353.091034,313.355682 354.577667,313.813690 354.467590,310.968781 
	C354.346985,307.851959 354.440125,304.726898 354.440125,301.379089 
	C356.648804,301.379089 358.401398,301.379089 360.445648,301.379089 
	C360.445648,310.864868 360.445648,320.230927 360.445648,329.578705 
	C356.447021,329.935669 352.634918,330.484131 348.813019,330.564331 
	C344.070801,330.663910 340.287323,326.337982 340.364929,321.321777 
	C340.451202,315.742523 344.129974,312.513092 350.961853,312.526367 
M354.597321,321.491150 
	C353.180328,320.231903 351.921204,318.509277 350.267212,317.945709 
	C349.622253,317.725952 347.441528,319.986908 347.169586,321.357819 
	C346.962097,322.403809 348.889130,324.982788 349.468109,324.868042 
	C351.234314,324.518188 352.807739,323.195435 354.597321,321.491150 
z"/>
<path fill="#F1F1F4" opacity="1.000000" stroke="none" 
	d="
M257.793274,305.399902 
	C257.861481,303.803650 257.928528,302.655060 258.005798,301.331726 
	C259.888519,301.331726 261.647949,301.331726 263.669434,301.331726 
	C263.669434,310.889130 263.669434,320.266357 263.669434,329.509705 
	C259.641754,329.892029 255.736313,330.524597 251.824341,330.568024 
	C246.895950,330.622803 243.380585,326.039490 243.771683,320.603149 
	C244.150818,315.333099 248.519257,311.594421 253.530487,312.343323 
	C254.789062,312.531372 256.001068,313.030914 257.792084,313.548401 
	C257.792084,310.740967 257.792084,308.294281 257.793274,305.399902 
M250.214050,322.286194 
	C252.040878,323.164612 253.811295,324.289581 255.738235,324.730591 
	C256.166290,324.828552 257.967468,322.251068 257.684723,321.372742 
	C257.229004,319.957001 255.215683,317.757233 254.485779,317.975952 
	C252.835297,318.470520 251.566772,320.239807 250.214050,322.286194 
z"/>
<path fill="#F1F1F4" opacity="1.000000" stroke="none" 
	d="
M189.226379,308.137573 
	C189.226364,311.424530 189.226364,314.242493 189.226364,316.667816 
	C193.253372,315.040741 197.236618,313.431366 201.219879,311.821960 
	C201.548676,312.380737 201.877472,312.939484 202.206268,313.498260 
	C199.499100,315.475739 196.791916,317.453247 193.411667,319.922394 
	C197.756516,323.798370 200.646469,326.376465 203.822769,329.210022 
	C197.086884,331.779755 193.506653,328.319916 189.743011,323.809204 
	C189.374329,326.416229 189.134979,328.108734 188.893997,329.812683 
	C187.007416,329.812683 185.234329,329.812683 183.273666,329.812683 
	C183.273666,320.333313 183.273666,311.063690 183.273666,301.390686 
	C185.131958,301.290985 186.872330,301.197632 189.226395,301.071320 
	C189.226395,303.476166 189.226395,305.572357 189.226379,308.137573 
z"/>
<path fill="#1813C2" opacity="1.000000" stroke="none" 
	d="
M172.866684,160.799866 
	C167.567612,164.202545 162.268539,167.605209 156.650558,171.092117 
	C160.047729,166.924179 163.266953,162.067245 167.571136,158.530823 
	C181.666229,146.949951 197.946426,141.838959 216.200912,144.365723 
	C209.443954,145.835327 202.741989,146.778763 196.040024,147.722198 
	C196.106064,148.065170 196.172089,148.408142 196.238113,148.751114 
	C201.797943,149.752594 207.357758,150.754074 212.462631,151.774841 
	C208.313202,151.834549 204.618713,151.874954 200.503937,151.887512 
	C192.998688,153.881241 185.913742,155.902817 178.508957,158.021194 
	C176.414978,159.011948 174.640823,159.905914 172.866684,160.799866 
z"/>
<path fill="#1813C2" opacity="1.000000" stroke="none" 
	d="
M280.880157,179.875214 
	C279.506653,178.638229 278.133148,177.401245 276.854126,175.510773 
	C282.103119,167.236069 288.944855,161.520950 297.122467,157.452286 
	C301.703156,155.173218 306.483704,153.295807 311.174225,151.237427 
	C319.993317,149.076187 328.489014,150.750992 336.732574,153.805771 
	C338.703857,154.536224 340.135925,156.721741 341.929138,158.595490 
	C342.042297,158.952957 341.930847,159.071747 341.568329,159.008316 
	C338.107391,157.979568 335.008972,157.014252 331.645752,155.797729 
	C327.637939,155.375046 323.894928,155.203583 319.898193,154.693878 
	C308.409088,153.405136 299.587555,158.130219 292.120026,166.090576 
	C292.111603,166.122574 292.050018,166.146790 291.716431,166.144684 
	C290.983124,166.781647 290.583435,167.420685 290.169983,168.101532 
	C290.156219,168.143341 290.079926,168.187241 289.800293,168.282471 
	C289.331482,168.900299 289.142242,169.422897 288.973938,169.967422 
	C288.994843,169.989349 288.940399,169.963547 288.666443,169.981918 
	C288.249237,170.316116 288.106018,170.631927 287.978821,170.968460 
	C287.994843,170.989182 287.948181,170.965973 287.671997,171.015167 
	C287.242889,171.394531 287.089996,171.724701 286.702209,172.278015 
	C284.604950,174.959167 282.742554,177.417191 280.880157,179.875214 
z"/>
<path fill="#F1F1F4" opacity="1.000000" stroke="none" 
	d="
M222.223190,312.277527 
	C229.808487,313.237854 231.766296,315.268829 231.869812,322.402863 
	C228.017960,322.402863 224.147278,322.402863 220.276596,322.402863 
	C220.183075,323.013947 220.089539,323.625061 219.996002,324.236145 
	C221.840973,324.546936 223.675766,324.986084 225.533691,325.133514 
	C227.501968,325.289673 229.492233,325.168549 232.501938,325.168549 
	C228.484131,330.582886 224.378448,331.466858 219.721466,329.979340 
	C215.643600,328.676880 213.347610,325.537537 213.466385,321.350922 
	C213.613251,316.175049 216.851578,313.300385 222.223190,312.277527 
z"/>
<path fill="#F1F1F4" opacity="1.000000" stroke="none" 
	d="
M375.474030,315.557129 
	C379.082428,311.971832 383.017944,311.387421 387.163208,313.303802 
	C390.666382,314.923401 392.175751,317.910522 391.748383,322.389374 
	C387.852051,322.389374 383.994263,322.389374 380.136444,322.389374 
	C380.044678,323.015350 379.952911,323.641357 379.861145,324.267334 
	C381.686249,324.567352 383.501740,324.992126 385.339050,325.133362 
	C387.300995,325.284210 389.283508,325.167358 392.219818,325.167358 
	C387.310242,330.945770 381.641266,331.971191 377.177063,328.907623 
	C372.835327,325.928162 372.137726,321.273254 375.474030,315.557129 
z"/>
<path fill="#A838E5" opacity="1.000000" stroke="none" 
	d="
M259.413361,161.866425 
	C254.621796,161.528961 252.300003,163.604630 253.072723,168.293335 
	C249.328751,166.079834 245.533768,163.561432 241.322571,160.644485 
	C236.607925,157.860641 232.309464,155.475342 227.638824,153.019348 
	C224.260605,151.297699 219.955551,151.853912 217.380646,147.254105 
	C223.624313,147.930664 228.811691,148.492767 234.339935,149.086945 
	C235.127563,149.209946 235.574341,149.300842 236.119263,149.706543 
	C238.318008,150.698837 240.418610,151.376343 242.519226,152.053833 
	C248.102615,155.231644 253.686005,158.409454 259.413361,161.866425 
z"/>
<path fill="#F1F1F4" opacity="1.000000" stroke="none" 
	d="
M308.656128,319.633759 
	C311.074463,313.961517 315.270996,311.462616 320.551147,312.432770 
	C325.000000,313.250183 328.346527,315.466461 328.956512,320.345520 
	C329.662415,325.992310 325.570129,330.278595 319.313507,330.626038 
	C312.587341,330.999603 308.644287,327.102081 308.656128,319.633759 
M318.444794,325.206909 
	C319.824768,323.915527 321.530090,322.802185 322.391937,321.227234 
	C322.659943,320.737518 320.725861,318.145050 319.651642,318.040588 
	C318.237305,317.903046 315.381470,319.361542 315.424225,319.974701 
	C315.547028,321.733521 316.818420,323.412170 318.444794,325.206909 
z"/>
<path fill="#F1F1F4" opacity="1.000000" stroke="none" 
	d="
M292.659790,313.203003 
	C296.659637,315.367249 296.164825,318.863953 296.179474,322.172272 
	C296.190521,324.660370 296.181641,327.148499 296.181641,329.827820 
	C294.143738,329.827820 292.361420,329.827820 290.063660,329.827820 
	C290.063660,326.882751 290.381073,323.882751 289.926270,321.004791 
	C289.707397,319.619843 288.031982,318.465088 287.016174,317.206085 
	C285.963593,318.464111 284.247925,319.604584 283.999664,321.005157 
	C283.517212,323.726929 283.858398,326.594696 283.858398,329.782654 
	C281.841492,329.884186 280.097107,329.972015 278.004181,330.077393 
	C278.004181,324.439453 278.004181,319.040161 278.004181,313.048157 
	C282.565063,313.048157 287.433533,313.048157 292.659790,313.203003 
z"/>
<path fill="#F1F1F4" opacity="1.000000" stroke="none" 
	d="
M165.069183,312.784485 
	C166.906479,315.055573 169.075699,317.073059 169.631302,319.465302 
	C170.358093,322.594635 169.809402,326.020203 169.809402,329.669495 
	C167.725235,329.669495 165.847916,329.669495 163.615692,329.669495 
	C163.615692,327.392548 163.662277,325.089233 163.603012,322.788666 
	C163.539764,320.334076 163.831284,317.096252 160.318665,317.459076 
	C159.119446,317.582977 157.795349,320.716736 157.336334,322.665588 
	C156.820297,324.856537 157.217621,327.262604 157.217621,329.797119 
	C155.212372,329.797119 153.444046,329.797119 151.374054,329.797119 
	C151.374054,324.324921 151.374054,318.787750 151.374054,312.697571 
	C155.833572,312.697571 160.258453,312.697571 165.069183,312.784485 
z"/>
<path fill="#1813C2" opacity="1.000000" stroke="none" 
	d="
M342.097015,158.892639 
	C347.447083,158.970291 349.225433,163.530991 351.568420,166.892731 
	C359.029358,177.597702 361.573364,189.451035 358.033447,202.199188 
	C356.776978,199.036575 355.979675,195.984650 355.163818,192.589264 
	C354.780334,191.472061 354.415375,190.698318 354.036865,189.958160 
	C354.023346,189.991745 354.095734,189.989563 354.144867,189.594711 
	C351.852051,184.449875 349.510101,179.699890 347.150635,174.557938 
	C348.386444,170.197693 347.404999,166.851303 344.628723,163.775055 
	C343.445282,162.463730 342.813385,160.654633 341.930847,159.071747 
	C341.930847,159.071747 342.042297,158.952957 342.097015,158.892639 
z"/>
<path fill="#F1F1F4" opacity="1.000000" stroke="none" 
	d="
M117.215523,327.465698 
	C115.468040,328.860809 113.721947,329.804993 111.275513,331.127899 
	C111.275513,320.379578 111.275513,311.121979 111.275513,301.400482 
	C113.063950,301.298096 114.793930,301.199066 117.216911,301.060333 
	C117.216911,309.898102 117.216911,318.456451 117.215523,327.465698 
z"/>
<path fill="#6009E8" opacity="1.000000" stroke="none" 
	d="
M233.999084,149.054871 
	C228.811691,148.492767 223.624313,147.930664 217.380646,147.254105 
	C219.955551,151.853912 224.260605,151.297699 227.427185,153.246719 
	C226.780914,153.717133 225.974091,153.889481 224.737640,154.019714 
	C220.511200,153.236923 216.714401,152.496246 212.917587,151.755554 
	C207.357758,150.754074 201.797943,149.752594 196.238113,148.751114 
	C196.172089,148.408142 196.106064,148.065170 196.040024,147.722198 
	C202.741989,146.778763 209.443954,145.835327 216.421265,144.694305 
	C217.290375,144.541443 217.884140,144.586151 219.188873,144.843597 
	C221.563828,145.288681 223.227814,145.521027 224.891815,145.753372 
	C225.456024,145.818161 226.020218,145.882935 226.984268,146.011993 
	C227.384109,146.076279 227.343384,146.096649 227.343384,146.096649 
	C227.667908,146.232864 227.992432,146.369095 228.941223,146.783142 
	C229.565475,147.060974 230.029205,147.136490 230.029205,147.136490 
	C230.029205,147.136490 230.496277,147.105774 230.496277,147.105774 
	C230.496277,147.105774 230.877686,147.111938 231.222076,147.413269 
	C232.377350,148.161377 233.188217,148.608124 233.999084,149.054871 
z"/>
<path fill="#190848" opacity="1.000000" stroke="none" 
	d="
M310.747986,151.151001 
	C306.483704,153.295807 301.703156,155.173218 297.122467,157.452286 
	C288.944855,161.520950 282.103119,167.236069 276.772278,175.206604 
	C274.320618,173.696579 272.045258,171.837234 269.618103,169.672241 
	C270.491119,168.397827 271.515930,167.429077 272.822632,166.707825 
	C272.966370,168.860275 273.084839,170.526779 275.567932,168.790756 
	C277.385986,167.519684 279.088318,166.083130 281.168457,164.657822 
	C284.656189,162.159882 287.817657,159.724426 291.327271,157.146454 
	C295.056427,155.307480 298.438354,153.612823 301.805206,151.888657 
	C301.838409,151.871643 301.710876,151.436508 301.582306,151.248627 
	C301.509827,151.142670 301.281647,151.143250 301.123596,151.095840 
	C304.189636,151.085434 307.255707,151.075012 310.747986,151.151001 
z"/>
<path fill="#F1F1F4" opacity="1.000000" stroke="none" 
	d="
M131.081848,323.896545 
	C131.081818,320.106750 131.081818,316.796539 131.081818,313.167542 
	C133.203995,313.167542 135.075714,313.167542 137.070526,313.167542 
	C137.070526,318.762085 137.070526,324.226776 137.070526,329.856689 
	C135.130997,329.856689 133.343933,329.856689 131.081863,329.856689 
	C131.081863,327.954956 131.081863,326.165558 131.081848,323.896545 
z"/>
<path fill="#0D0D75" opacity="1.000000" stroke="none" 
	d="
M310.247314,231.116074 
	C310.445068,230.766205 310.455841,230.852158 310.853882,230.980042 
	C311.522675,231.051041 311.793488,230.994186 312.064270,230.937332 
	C312.064270,230.937332 312.043945,230.857391 312.075562,230.831787 
	C312.866943,231.657120 313.499084,233.035599 314.411316,233.256302 
	C316.789490,233.831650 319.290375,233.899612 321.559509,234.590576 
	C321.395294,235.721954 321.154938,236.878723 321.477448,237.065933 
	C322.844391,237.859421 324.378510,238.364975 325.851532,238.975739 
	C317.840668,240.885818 310.922241,237.661621 304.070312,234.263184 
	C302.803223,233.634735 301.743347,232.588425 300.833893,230.515320 
	C303.905792,230.832199 306.977661,231.149063 310.247314,231.116074 
z"/>
<path fill="#9606CC" opacity="1.000000" stroke="none" 
	d="
M330.933411,233.913757 
	C336.347870,231.830002 341.762360,229.746262 347.602112,227.498856 
	C345.021179,232.618652 340.516449,235.002731 334.896606,236.785782 
	C333.150085,235.809677 332.041748,234.861725 330.933411,233.913757 
z"/>
<path fill="#9606CC" opacity="1.000000" stroke="none" 
	d="
M355.182373,192.932724 
	C355.979675,195.984650 356.776978,199.036575 357.727234,202.412521 
	C356.150299,206.704178 354.420441,210.671814 352.379700,214.759872 
	C358.111908,205.437134 355.939392,196.881271 349.433350,188.402496 
	C350.129089,187.640305 350.644928,187.288467 351.422241,187.095291 
	C352.487762,188.165817 353.291748,189.077682 354.095734,189.989563 
	C354.095734,189.989563 354.023346,189.991745 354.044067,190.304123 
	C354.437347,191.388565 354.809875,192.160645 355.182373,192.932724 
z"/>
<path fill="#570AAC" opacity="1.000000" stroke="none" 
	d="
M330.355194,233.782867 
	C332.041748,234.861725 333.150085,235.809677 334.524292,236.834839 
	C332.094635,237.573807 329.399109,238.235580 326.277527,238.936554 
	C324.378510,238.364975 322.844391,237.859421 321.477448,237.065933 
	C321.154938,236.878723 321.395294,235.721954 321.703278,234.931976 
	C322.841553,234.630219 323.653290,234.407669 324.817871,234.017609 
	C325.170776,233.850098 325.183228,233.976807 325.183228,233.976807 
	C326.714478,233.868530 328.245728,233.760239 330.355194,233.782867 
z"/>
<path fill="#F1F1F4" opacity="1.000000" stroke="none" 
	d="
M136.177948,308.855347 
	C134.235550,308.385376 132.280472,308.080017 131.130096,306.953125 
	C130.667358,306.499878 131.595505,303.807190 132.592529,302.954041 
	C133.330536,302.322571 136.290207,302.764893 136.383224,303.165070 
	C136.791168,304.920044 136.515884,306.833862 136.177948,308.855347 
z"/>
<path fill="#0D0D75" opacity="1.000000" stroke="none" 
	d="
M290.979126,157.288971 
	C287.817657,159.724426 284.656189,162.159882 281.249207,164.364700 
	C280.721069,163.116760 280.438446,162.099457 280.155823,161.082138 
	C283.237488,159.193207 286.319122,157.304276 289.757538,155.641815 
	C290.402557,156.341843 290.690857,156.815399 290.979126,157.288971 
z"/>
<path fill="#570AAC" opacity="1.000000" stroke="none" 
	d="
M291.327271,157.146454 
	C290.690857,156.815399 290.402557,156.341843 290.101990,155.585571 
	C293.506256,153.958252 296.922821,152.613617 300.731476,151.182419 
	C301.281647,151.143250 301.509827,151.142670 301.582306,151.248627 
	C301.710876,151.436508 301.838409,151.871643 301.805206,151.888657 
	C298.438354,153.612823 295.056427,155.307480 291.327271,157.146454 
z"/>
<path fill="#0B0EA9" opacity="1.000000" stroke="none" 
	d="
M280.119202,161.080109 
	C280.438446,162.099457 280.721069,163.116760 280.922974,164.427200 
	C279.088318,166.083130 277.385986,167.519684 275.567932,168.790756 
	C273.084839,170.526779 272.966370,168.860275 273.160950,166.624969 
	C274.996368,164.988037 276.775391,163.681473 279.039856,162.109406 
	C279.776459,161.667664 279.951294,161.434235 280.049744,161.143616 
	C280.049744,161.143616 280.082611,161.078094 280.119202,161.080109 
z"/>
<path fill="#6009E8" opacity="1.000000" stroke="none" 
	d="
M242.383820,151.754944 
	C240.418610,151.376343 238.318008,150.698837 236.281357,149.630264 
	C236.576035,149.206909 236.807831,149.187851 237.040710,149.182022 
	C238.776611,149.940033 240.512512,150.698044 242.383820,151.754944 
z"/>
<path fill="#1813C2" opacity="1.000000" stroke="none" 
	d="
M236.994812,148.905212 
	C236.807831,149.187851 236.576035,149.206909 236.183228,149.315460 
	C235.574341,149.300842 235.127563,149.209946 234.339935,149.086945 
	C233.188217,148.608124 232.377350,148.161377 231.387817,147.507660 
	C233.122406,147.743271 235.035645,148.185837 236.994812,148.905212 
z"/>
<path fill="#1813C2" opacity="1.000000" stroke="none" 
	d="
M224.796661,145.440826 
	C223.227814,145.521027 221.563828,145.288681 219.619781,144.960373 
	C221.126999,144.952362 222.914246,145.040314 224.796661,145.440826 
z"/>
<path fill="#570AAC" opacity="1.000000" stroke="none" 
	d="
M295.264587,223.858582 
	C295.936615,223.855713 296.768982,224.170776 297.497437,224.684677 
	C296.737305,224.647827 296.081116,224.412170 295.264587,223.858582 
z"/>
<path fill="#1813C2" opacity="1.000000" stroke="none" 
	d="
M230.420715,146.921326 
	C230.496277,147.105774 230.029205,147.136490 230.029205,147.136490 
	C230.029205,147.136490 229.565475,147.060974 229.424454,146.995743 
	C229.637329,146.865967 229.991241,146.801422 230.420715,146.921326 
z"/>
<path fill="#1813C2" opacity="1.000000" stroke="none" 
	d="
M154.816223,173.032806 
	C155.060608,173.265656 154.989441,173.517746 154.613571,173.831207 
	C154.356796,173.723511 154.240723,173.521942 154.220367,173.311096 
	C154.214508,173.250458 154.484665,173.163162 154.816223,173.032806 
z"/>
<path fill="#1813C2" opacity="1.000000" stroke="none" 
	d="
M155.892792,171.371033 
	C155.950485,171.795364 155.713974,172.276703 155.233673,172.886215 
	C155.192780,172.485611 155.395676,171.956833 155.892792,171.371033 
z"/>
<path fill="#9606CC" opacity="1.000000" stroke="none" 
	d="
M325.115662,233.924042 
	C325.183228,233.976807 325.170776,233.850098 325.204437,233.847687 
	C325.238098,233.845291 325.048065,233.871292 325.115662,233.924042 
z"/>
<path fill="#1813C2" opacity="1.000000" stroke="none" 
	d="
M227.416718,146.018066 
	C227.343384,146.096649 227.384109,146.076279 227.403564,146.087982 
	C227.423004,146.099670 227.360687,145.835144 227.360687,145.835144 
	C227.360687,145.835144 227.490051,145.939468 227.416718,146.018066 
z"/>
<path fill="#0D0D75" opacity="1.000000" stroke="none" 
	d="
M279.818542,161.194580 
	C279.951294,161.434235 279.776459,161.667664 279.324951,161.937485 
	C279.133820,161.683716 279.288055,161.421875 279.818542,161.194580 
z"/>
<path fill="#000000" opacity="1.000000" stroke="none" 
	d="
M312.019836,230.586197 
	C311.793488,230.994186 311.522675,231.051041 310.845642,231.022568 
	C310.951416,230.703171 311.463409,230.469116 312.019836,230.586197 
z"/>
<path fill="#000000" opacity="1.000000" stroke="none" 
	d="
M313.300079,205.391495 
	C306.069977,203.278702 299.354462,200.258591 294.256714,193.982483 
	C297.242889,189.707413 300.141083,185.990982 303.363983,182.121094 
	C306.778229,179.915283 309.867706,177.862915 313.361511,175.792816 
	C316.562469,175.407700 319.359131,175.040329 322.484070,174.812683 
	C325.940613,177.548096 329.068909,180.143753 332.197174,182.739410 
	C332.682343,185.895920 333.712158,189.080811 333.549347,192.203537 
	C333.081970,201.166565 328.141327,204.871048 316.451599,205.417572 
	C315.510376,205.435028 315.000153,205.355026 314.011658,205.268005 
	C313.533386,205.261002 313.300079,205.391495 313.300079,205.391495 
z"/>
<path fill="#570AAC" opacity="1.000000" stroke="none" 
	d="
M332.485901,182.592865 
	C329.068909,180.143753 325.940613,177.548096 322.763092,174.613251 
	C328.428925,175.317841 334.143982,176.361603 340.073669,177.656677 
	C343.912415,180.917542 347.536591,183.927078 351.160736,186.936630 
	C350.644928,187.288467 350.129089,187.640305 349.304810,188.088074 
	C348.459198,187.876358 347.922058,187.568695 347.141663,186.732605 
	C346.242889,185.911835 345.587280,185.619492 344.931702,185.327179 
	C340.879333,184.366882 336.826965,183.406586 332.485901,182.592865 
z"/>
<path fill="#9606CC" opacity="1.000000" stroke="none" 
	d="
M344.998383,185.602722 
	C345.587280,185.619492 346.242889,185.911835 346.930298,186.506470 
	C346.329803,186.498627 345.697418,186.188461 344.998383,185.602722 
z"/>
<path fill="#0B0EA9" opacity="1.000000" stroke="none" 
	d="
M154.331848,225.901016 
	C148.689606,211.233368 148.651413,196.895020 156.709747,182.965836 
	C158.443985,179.968094 159.874954,176.794891 161.991699,173.403442 
	C163.373566,171.757416 164.209335,170.410492 165.045105,169.063568 
	C165.045105,169.063568 165.010773,169.005737 165.363617,169.147980 
	C166.818634,168.214020 167.920792,167.137787 169.022964,166.061569 
	C169.022964,166.061569 169.025787,166.027328 169.385315,166.021393 
	C170.511719,165.035294 171.278580,164.055115 172.045441,163.074921 
	C172.045456,163.074936 172.012375,163.015091 172.383011,163.196747 
	C175.262283,162.039658 177.770920,160.700912 180.645172,159.288559 
	C189.337189,157.548981 197.663605,155.883011 205.738770,154.439896 
	C203.068390,155.417175 202.049057,156.631500 204.397842,158.617950 
	C205.842270,159.839569 207.460373,160.855850 208.771027,162.246948 
	C206.812393,164.001129 205.259338,166.355743 203.314072,166.743698 
	C200.151108,167.374496 196.502014,167.437103 193.464661,166.466812 
	C185.355545,163.876358 180.866302,171.692841 174.071884,172.560791 
	C173.949738,172.576401 173.828461,172.785400 173.749832,172.927933 
	C170.215118,179.335388 165.905273,185.450211 163.340256,192.225510 
	C159.629211,202.027985 159.896027,212.266647 163.939743,221.847275 
	C165.552444,222.295273 166.965866,222.930634 167.977722,223.960526 
	C171.782089,227.832703 173.171219,234.250427 180.114197,235.228882 
	C181.244720,236.278641 182.089554,237.197403 182.988846,238.457153 
	C184.318619,239.560776 185.593948,240.323425 187.190201,241.223969 
	C192.694061,243.839264 197.876968,246.316666 202.612961,248.902069 
	C193.788132,247.300842 185.410217,245.591583 176.810364,243.625931 
	C173.704483,241.756042 170.510895,240.517838 168.003082,238.448532 
	C163.238708,234.517258 158.866776,230.110367 154.331848,225.901016 
z"/>
<path fill="#1813C2" opacity="1.000000" stroke="none" 
	d="
M154.257553,226.274292 
	C158.866776,230.110367 163.238708,234.517258 168.003082,238.448532 
	C170.510895,240.517838 173.704483,241.756042 176.586685,243.905777 
	C173.308685,245.832489 173.098251,247.458176 175.930695,249.739410 
	C176.722717,250.377304 176.847443,251.843765 177.278275,252.930161 
	C176.176865,252.752777 175.053482,252.659103 173.979584,252.376968 
	C172.616669,252.018890 171.293945,251.507874 169.953888,251.062805 
	C169.953888,251.062805 169.997711,251.028656 169.886902,250.792053 
	C169.475922,250.396210 169.175735,250.236954 168.875565,250.077698 
	C167.321487,248.590775 165.767395,247.103851 164.075363,245.322952 
	C160.686020,238.901840 157.434647,232.774704 154.257553,226.274292 
z"/>
<path fill="#A838E5" opacity="1.000000" stroke="none" 
	d="
M180.279572,159.362183 
	C177.770920,160.700912 175.262283,162.039658 172.410416,163.217194 
	C172.287476,162.502319 172.507751,161.948669 172.797363,161.097443 
	C174.640823,159.905914 176.414978,159.011948 178.824600,158.179733 
	C179.733246,158.615051 180.006409,158.988617 180.279572,159.362183 
z"/>
<path fill="#A838E5" opacity="1.000000" stroke="none" 
	d="
M171.692444,163.054657 
	C171.278580,164.055115 170.511719,165.035294 169.402283,166.024200 
	C169.819611,165.033432 170.579544,164.033920 171.692444,163.054657 
z"/>
<path fill="#A838E5" opacity="1.000000" stroke="none" 
	d="
M164.728943,169.178955 
	C164.209335,170.410492 163.373566,171.757416 162.166199,173.113373 
	C162.667328,171.846375 163.540054,170.570358 164.728943,169.178955 
z"/>
<path fill="#A838E5" opacity="1.000000" stroke="none" 
	d="
M168.686768,166.029053 
	C167.920792,167.137787 166.818634,168.214020 165.389374,169.169769 
	C166.158386,168.031723 167.254486,167.014145 168.686768,166.029053 
z"/>
<path fill="#9606CC" opacity="1.000000" stroke="none" 
	d="
M249.709442,241.002228 
	C248.551926,242.080627 247.394409,243.159027 245.789246,244.693115 
	C243.671997,246.217407 242.075043,247.427429 240.319763,248.329269 
	C233.914993,251.619919 227.457397,254.807724 221.044434,257.676208 
	C222.425400,254.622086 223.781631,251.925995 225.531799,249.188065 
	C235.084641,248.002243 242.372879,243.074066 248.560577,236.804382 
	C252.362106,232.952499 254.925949,227.879120 258.318115,223.122040 
	C261.086060,217.897507 263.581451,212.905136 266.307800,207.919220 
	C266.538727,207.925659 266.999023,207.966354 266.999023,207.966370 
	C267.596405,208.539093 268.193817,209.111816 268.950745,209.963959 
	C263.519714,219.545227 257.929199,228.847076 251.954346,238.609741 
	C251.367142,239.381912 251.164291,239.693268 250.961426,240.004608 
	C250.961426,240.004608 251.009094,240.009506 250.754700,240.106720 
	C250.236679,240.470016 249.973053,240.736115 249.709442,241.002228 
z"/>
<path fill="#190848" opacity="1.000000" stroke="none" 
	d="
M251.896729,190.704681 
	C255.181290,193.574936 258.465851,196.445190 261.760284,199.918610 
	C260.815613,202.283401 259.861084,204.045029 258.675903,206.068268 
	C253.345428,214.462326 248.771011,222.998123 242.951599,230.578110 
	C239.380585,235.229477 233.903030,238.417145 229.278900,241.943420 
	C228.440186,241.284439 227.548706,240.563400 226.778580,240.675583 
	C224.514053,241.005417 222.297699,241.665955 220.062500,242.197021 
	C219.841080,241.627975 219.619675,241.058929 219.398254,240.489883 
	C222.490341,238.921051 225.582428,237.352234 228.912094,235.999054 
	C232.758026,233.331879 236.366364,230.449051 240.293457,227.394821 
	C243.584198,223.379456 246.627975,219.586700 249.446945,215.633606 
	C249.846588,215.073166 249.152420,213.732727 249.067398,212.516052 
	C249.311234,210.857574 249.452194,209.436340 249.719482,208.367767 
	C251.630371,209.583420 255.525848,206.141754 257.317963,202.207642 
	C258.501190,199.610107 257.422699,198.548294 254.882294,198.367111 
	C254.720901,198.355606 254.556229,198.390045 254.372589,198.062592 
	C253.231750,195.451996 252.111389,193.181900 251.218521,190.864655 
	C251.445999,190.817505 251.896729,190.704681 251.896729,190.704681 
z"/>
<path fill="#0B0EA9" opacity="1.000000" stroke="none" 
	d="
M251.860260,190.393768 
	C251.896729,190.704681 251.445999,190.817505 250.933380,190.689941 
	C249.344437,189.803986 248.305969,188.983765 247.185532,188.297318 
	C240.364670,184.118515 234.719696,177.859421 226.260986,176.222137 
	C226.145218,175.624588 226.085678,175.278641 226.033417,174.553040 
	C225.016663,172.448074 223.979050,170.730667 222.971939,168.995529 
	C221.634857,166.691895 220.321594,164.374420 219.419388,162.041473 
	C223.500183,163.010681 227.159683,164.001358 230.819183,164.992020 
	C234.195129,165.454269 237.113434,166.800629 237.227463,170.600525 
	C237.483643,179.136856 243.948776,183.038452 249.423416,187.745758 
	C250.268539,188.472443 251.025864,189.301254 251.860260,190.393768 
z"/>
<path fill="#1813C2" opacity="1.000000" stroke="none" 
	d="
M230.875458,164.624634 
	C227.159683,164.001358 223.500183,163.010681 218.965393,162.030640 
	C215.060226,162.015610 212.030365,161.989960 209.000488,161.964325 
	C207.460373,160.855850 205.842270,159.839569 204.397842,158.617950 
	C202.049057,156.631500 203.068390,155.417175 206.153595,154.383652 
	C208.217285,154.070648 209.614914,154.036743 211.424026,154.044586 
	C217.276474,155.041153 222.717468,155.995972 228.423172,157.109711 
	C229.454742,157.550049 230.221588,157.831482 230.988434,158.112915 
	C230.969528,160.161026 230.950638,162.209152 230.875458,164.624634 
z"/>
<path fill="#9606CC" opacity="1.000000" stroke="none" 
	d="
M231.342865,158.211700 
	C230.221588,157.831482 229.454742,157.550049 228.367432,156.784698 
	C227.087067,155.554443 226.127182,154.808136 225.167282,154.061829 
	C225.974091,153.889481 226.780914,153.717133 227.799362,153.317429 
	C232.309464,155.475342 236.607925,157.860641 240.979370,160.579330 
	C237.934006,160.045303 234.815643,159.177887 231.342865,158.211700 
z"/>
<path fill="#0D0D75" opacity="1.000000" stroke="none" 
	d="
M258.906555,205.806656 
	C259.861084,204.045029 260.815613,202.283401 261.925842,200.214584 
	C265.541992,201.097687 267.508972,203.295135 266.990417,207.570389 
	C266.999023,207.966354 266.538727,207.925659 265.975311,207.755920 
	C263.243439,206.992996 261.075012,206.399826 258.906555,205.806656 
z"/>
<path fill="#F734E8" opacity="1.000000" stroke="none" 
	d="
M221.019699,258.034271 
	C227.457397,254.807724 233.914993,251.619919 240.319763,248.329269 
	C242.075043,247.427429 243.671997,246.217407 245.625702,244.942902 
	C249.231674,246.042587 251.747589,247.638809 247.845764,251.693787 
	C246.910370,252.332947 246.435562,252.661423 245.960754,252.989883 
	C245.960754,252.989883 246.005630,252.999954 245.644211,253.013794 
	C239.099167,255.930618 232.915543,258.833618 226.536575,261.760254 
	C226.341232,261.783936 225.959167,261.878326 225.573410,261.869507 
	C223.739395,262.197113 222.291153,262.533569 220.397217,262.878815 
	C216.712570,262.887604 213.473618,262.887604 210.234680,262.887604 
	C210.229477,262.612915 210.224274,262.338257 210.219070,262.063568 
	C211.845032,261.410919 213.470993,260.758270 215.402222,260.096313 
	C216.230164,259.800720 216.752853,259.514465 217.563934,259.196625 
	C218.229828,259.081482 218.607315,258.997864 219.238968,258.877960 
	C219.745483,258.618866 219.997864,258.396088 220.446259,258.158844 
	C220.642303,258.144379 221.019699,258.034271 221.019699,258.034271 
z"/>
<path fill="#9606CC" opacity="1.000000" stroke="none" 
	d="
M226.731918,261.736603 
	C232.915543,258.833618 239.099167,255.930618 245.636444,252.992142 
	C245.016251,254.614273 244.042419,256.271881 243.016449,258.224243 
	C238.558578,261.005768 234.152863,263.492523 229.524261,265.660706 
	C230.049133,264.466827 230.796875,263.591583 231.856476,262.351288 
	C229.675934,262.089722 228.203918,261.913177 226.731918,261.736603 
z"/>
<path fill="#9606CC" opacity="1.000000" stroke="none" 
	d="
M246.262115,252.987549 
	C246.435562,252.661423 246.910370,252.332947 247.692780,252.016388 
	C247.521423,252.347275 247.042450,252.666245 246.262115,252.987549 
z"/>
<path fill="#F734E8" opacity="1.000000" stroke="none" 
	d="
M249.984604,240.909393 
	C249.973053,240.736115 250.236679,240.470016 250.752655,240.082855 
	C250.756592,240.246704 250.508194,240.531631 249.984604,240.909393 
z"/>
<path fill="#F734E8" opacity="1.000000" stroke="none" 
	d="
M251.212067,239.859406 
	C251.164291,239.693268 251.367142,239.381912 251.786530,238.884995 
	C251.822952,239.037689 251.642838,239.375946 251.212067,239.859406 
z"/>
<path fill="#6009E8" opacity="1.000000" stroke="none" 
	d="
M226.536575,261.760254 
	C228.203918,261.913177 229.675934,262.089722 231.856476,262.351288 
	C230.796875,263.591583 230.049133,264.466827 229.157410,265.638245 
	C229.013443,265.934387 228.615799,266.087555 228.046844,266.067749 
	C226.309311,266.656158 225.140747,267.264435 223.972198,267.872711 
	C223.301483,267.985229 222.630753,268.097717 221.193756,268.149384 
	C218.614548,268.407074 216.801620,268.725616 214.988693,269.044189 
	C208.958817,268.339264 202.928925,267.634369 196.493103,266.861450 
	C190.144440,264.091888 184.041840,261.683868 178.323608,258.570038 
	C175.274475,256.909668 172.889587,254.029495 170.079391,251.381348 
	C171.293945,251.507874 172.616669,252.018890 173.979584,252.376968 
	C175.053482,252.659103 176.176865,252.752777 177.278275,252.930161 
	C176.847443,251.843765 176.722717,250.377304 175.930695,249.739410 
	C173.098251,247.458176 173.308685,245.832489 176.808624,244.162170 
	C185.410217,245.591583 193.788132,247.300842 203.073059,248.924194 
	C207.068466,248.923279 210.156845,249.008286 213.354340,249.109528 
	C213.463440,249.125793 213.862289,248.957031 214.209686,248.803040 
	C215.059509,248.611099 215.561966,248.573166 216.403198,248.694092 
	C219.097641,248.901520 221.453278,248.950119 224.143753,249.041626 
	C224.698349,249.132980 224.918106,249.181442 225.137878,249.229904 
	C223.781631,251.925995 222.425400,254.622086 221.044434,257.676208 
	C221.019699,258.034271 220.642303,258.144379 220.182129,258.175629 
	C219.476227,258.442688 219.230530,258.678497 218.984833,258.914276 
	C218.607315,258.997864 218.229828,259.081482 217.235947,259.142059 
	C216.112030,259.447906 215.604492,259.776764 215.096970,260.105621 
	C213.470993,260.758270 211.845032,261.410919 210.219070,262.063568 
	C210.224274,262.338257 210.229477,262.612915 210.234680,262.887604 
	C213.473618,262.887604 216.712570,262.887604 220.799774,262.941040 
	C223.085083,262.622437 224.522125,262.250366 225.959167,261.878326 
	C225.959167,261.878326 226.341232,261.783936 226.536575,261.760254 
z"/>
<path fill="#9606CC" opacity="1.000000" stroke="none" 
	d="
M224.348358,267.909393 
	C225.140747,267.264435 226.309311,266.656158 227.837830,266.109161 
	C227.040039,266.762299 225.882278,267.354187 224.348358,267.909393 
z"/>
<path fill="#9606CC" opacity="1.000000" stroke="none" 
	d="
M215.396118,269.090820 
	C216.801620,268.725616 218.614548,268.407074 220.853973,268.167297 
	C219.454834,268.543182 217.629196,268.840332 215.396118,269.090820 
z"/>
<path fill="#F504DC" opacity="1.000000" stroke="none" 
	d="
M281.043274,180.179306 
	C282.742554,177.417191 284.604950,174.959167 286.959839,172.192505 
	C287.617615,171.577896 287.782898,171.271927 287.948181,170.965973 
	C287.948181,170.965973 287.994843,170.989182 288.232880,170.914703 
	C288.627411,170.547989 288.783905,170.255768 288.940399,169.963547 
	C288.940399,169.963547 288.994843,169.989349 289.261475,169.878357 
	C289.712067,169.240677 289.895996,168.713959 290.079956,168.187241 
	C290.079926,168.187241 290.156219,168.143341 290.498108,168.144135 
	C291.243347,167.478882 291.646667,166.812836 292.050018,166.146790 
	C292.050018,166.146790 292.111603,166.122574 292.478882,166.178894 
	C295.945404,164.496628 299.044708,162.758057 302.422424,161.005798 
	C303.147736,160.698395 303.594635,160.404709 304.043030,160.086502 
	C304.044525,160.061981 304.090027,160.080444 304.381470,160.057739 
	C305.153076,159.733536 305.633240,159.432053 306.326050,159.131287 
	C306.538696,159.131989 306.961548,159.086395 307.293213,159.148621 
	C309.406250,161.216888 311.187653,163.222946 312.877777,165.387161 
	C312.626129,165.743149 312.429565,165.893860 311.837524,166.117004 
	C307.966888,168.306396 304.455475,170.376282 300.590759,172.561340 
	C294.046661,175.955109 288.532806,179.916534 285.952423,186.837189 
	C284.370422,184.719254 282.788422,182.601318 281.043274,180.179306 
z"/>
<path fill="#483CE8" opacity="1.000000" stroke="none" 
	d="
M286.246399,187.021271 
	C288.532806,179.916534 294.046661,175.955109 300.577728,173.005554 
	C300.849884,176.498505 299.091095,180.063568 303.039246,182.274536 
	C300.141083,185.990982 297.242889,189.707413 294.117462,193.666992 
	C291.440277,191.675201 288.990326,189.440292 286.246399,187.021271 
z"/>
<path fill="#F504DC" opacity="1.000000" stroke="none" 
	d="
M313.315796,205.479218 
	C313.300079,205.391495 313.533386,205.261002 313.630615,205.349548 
	C313.727814,205.438110 313.570740,205.627655 313.570740,205.627655 
	C313.570740,205.627655 313.331512,205.566956 313.315796,205.479218 
z"/>
<path fill="#6009E8" opacity="1.000000" stroke="none" 
	d="
M168.988739,250.305374 
	C169.175735,250.236954 169.475922,250.396210 169.864746,250.802338 
	C169.669571,250.877167 169.385742,250.705109 168.988739,250.305374 
z"/>
<path fill="#000000" opacity="1.000000" stroke="none" 
	d="
M354.526764,321.871216 
	C352.807739,323.195435 351.234314,324.518188 349.468109,324.868042 
	C348.889130,324.982788 346.962097,322.403809 347.169586,321.357819 
	C347.441528,319.986908 349.622253,317.725952 350.267212,317.945709 
	C351.921204,318.509277 353.180328,320.231903 354.526764,321.871216 
z"/>
<path fill="#000000" opacity="1.000000" stroke="none" 
	d="
M250.178467,321.888428 
	C251.566772,320.239807 252.835297,318.470520 254.485779,317.975952 
	C255.215683,317.757233 257.229004,319.957001 257.684723,321.372742 
	C257.967468,322.251068 256.166290,324.828552 255.738235,324.730591 
	C253.811295,324.289581 252.040878,323.164612 250.178467,321.888428 
z"/>
<path fill="#483CE8" opacity="1.000000" stroke="none" 
	d="
M211.012558,154.002853 
	C209.614914,154.036743 208.217285,154.070648 206.404816,154.160797 
	C197.663605,155.883011 189.337189,157.548981 180.645172,159.288574 
	C180.006409,158.988617 179.733246,158.615051 179.144424,158.082947 
	C185.913742,155.902817 192.998688,153.881241 200.763489,152.214813 
	C204.633072,153.047607 207.822815,153.525223 211.012558,154.002853 
z"/>
<path fill="#A838E5" opacity="1.000000" stroke="none" 
	d="
M211.424026,154.044586 
	C207.822815,153.525223 204.633072,153.047607 201.183777,152.242676 
	C204.618713,151.874954 208.313202,151.834549 212.462631,151.774841 
	C216.714401,152.496246 220.511200,153.236923 224.737640,154.019714 
	C226.127182,154.808136 227.087067,155.554443 228.102707,156.625793 
	C222.717468,155.995972 217.276474,155.041153 211.424026,154.044586 
z"/>
<path fill="#9606CC" opacity="1.000000" stroke="none" 
	d="
M312.969025,165.228989 
	C311.187653,163.222946 309.406250,161.216888 307.523621,158.858902 
	C311.665527,157.348679 315.908722,156.190384 320.151886,155.032104 
	C323.894928,155.203583 327.637939,155.375046 331.690979,156.144394 
	C335.733551,160.087051 334.554871,166.982712 340.612732,168.694641 
	C340.819214,168.753006 340.799652,169.611084 340.581909,170.056793 
	C339.871521,169.976318 339.464661,169.935440 338.805847,169.658203 
	C330.621735,164.386551 321.861511,164.404175 312.969025,165.228989 
z"/>
<path fill="#6009E8" opacity="1.000000" stroke="none" 
	d="
M340.885468,170.096420 
	C340.799652,169.611084 340.819214,168.753006 340.612732,168.694641 
	C334.554871,166.982712 335.733551,160.087051 331.955780,156.395599 
	C335.008972,157.014252 338.107391,157.979568 341.568359,159.008301 
	C342.813385,160.654633 343.445282,162.463730 344.628723,163.775055 
	C347.404999,166.851303 348.386444,170.197693 346.810455,174.493271 
	C344.620361,173.245865 342.752930,171.671143 340.885468,170.096420 
z"/>
<path fill="#A838E5" opacity="1.000000" stroke="none" 
	d="
M319.898193,154.693878 
	C315.908722,156.190384 311.665527,157.348679 307.191956,158.796677 
	C306.961548,159.086395 306.538696,159.131989 306.024414,159.135315 
	C305.036774,159.452591 304.563416,159.766510 304.090027,160.080444 
	C304.090027,160.080444 304.044525,160.061981 303.761292,160.103333 
	C303.033356,160.436295 302.588684,160.727890 302.144012,161.019501 
	C299.044708,162.758057 295.945404,164.496628 292.487305,166.146881 
	C299.587555,158.130219 308.409088,153.405136 319.898193,154.693878 
z"/>
<path fill="#A838E5" opacity="1.000000" stroke="none" 
	d="
M291.716431,166.144684 
	C291.646667,166.812836 291.243347,167.478882 290.511902,168.102325 
	C290.583435,167.420685 290.983124,166.781647 291.716431,166.144684 
z"/>
<path fill="#A838E5" opacity="1.000000" stroke="none" 
	d="
M289.800323,168.282471 
	C289.895996,168.713959 289.712067,169.240677 289.240601,169.856445 
	C289.142242,169.422897 289.331482,168.900299 289.800323,168.282471 
z"/>
<path fill="#A838E5" opacity="1.000000" stroke="none" 
	d="
M288.666443,169.981918 
	C288.783905,170.255768 288.627411,170.547989 288.216858,170.893982 
	C288.106018,170.631927 288.249237,170.316116 288.666443,169.981918 
z"/>
<path fill="#A838E5" opacity="1.000000" stroke="none" 
	d="
M287.671967,171.015167 
	C287.782898,171.271927 287.617615,171.577896 287.194702,171.969360 
	C287.089996,171.724701 287.242889,171.394531 287.671967,171.015167 
z"/>
<path fill="#000000" opacity="1.000000" stroke="none" 
	d="
M318.041534,325.164612 
	C316.818420,323.412170 315.547028,321.733521 315.424225,319.974701 
	C315.381470,319.361542 318.237305,317.903046 319.651642,318.040588 
	C320.725861,318.145050 322.659943,320.737518 322.391937,321.227234 
	C321.530090,322.802185 319.824768,323.915527 318.041534,325.164612 
z"/>
<path fill="#A838E5" opacity="1.000000" stroke="none" 
	d="
M340.581909,170.056793 
	C342.752930,171.671143 344.620361,173.245865 346.828003,174.885239 
	C349.510101,179.699890 351.852051,184.449875 354.144867,189.594711 
	C353.291748,189.077682 352.487762,188.165817 351.422241,187.095276 
	C347.536591,183.927078 343.912415,180.917542 340.422913,177.517456 
	C341.095886,175.997055 342.310028,174.638504 342.022278,173.788162 
	C341.526672,172.323624 340.096069,171.175491 339.057831,169.894577 
	C339.464661,169.935440 339.871521,169.976318 340.581909,170.056793 
z"/>
<path fill="#A838E5" opacity="1.000000" stroke="none" 
	d="
M355.163818,192.589264 
	C354.809875,192.160645 354.437347,191.388565 354.057617,190.270538 
	C354.415375,190.698318 354.780334,191.472061 355.163818,192.589264 
z"/>
<path fill="#F734E8" opacity="1.000000" stroke="none" 
	d="
M338.805847,169.658203 
	C340.096069,171.175491 341.526672,172.323624 342.022278,173.788162 
	C342.310028,174.638504 341.095886,175.997055 340.208313,177.266144 
	C334.143982,176.361603 328.428925,175.317841 322.434814,174.473511 
	C319.359131,175.040329 316.562469,175.407700 313.227905,175.482941 
	C312.525604,172.126373 312.361206,169.061920 312.196808,165.997482 
	C312.429565,165.893860 312.626129,165.743149 312.877777,165.387161 
	C321.861511,164.404175 330.621735,164.386551 338.805847,169.658203 
z"/>
<path fill="#A838E5" opacity="1.000000" stroke="none" 
	d="
M311.837524,166.117004 
	C312.361206,169.061920 312.525604,172.126373 312.823608,175.500687 
	C309.867706,177.862915 306.778229,179.915283 303.363983,182.121094 
	C299.091095,180.063568 300.849884,176.498505 300.931091,172.890381 
	C304.455475,170.376282 307.966888,168.306396 311.837524,166.117004 
z"/>
<path fill="#000000" opacity="1.000000" stroke="none" 
	d="
M213.245239,249.093277 
	C210.156845,249.008286 207.068466,248.923279 203.519989,248.816162 
	C197.876968,246.316666 192.694061,243.839264 187.084808,240.912125 
	C185.417130,239.680298 184.175766,238.898224 182.934387,238.116150 
	C182.089554,237.197403 181.244720,236.278641 180.112946,234.873291 
	C178.685699,232.601990 177.434265,230.877884 176.423080,229.022812 
	C169.623642,216.548843 170.640244,204.161118 177.158569,191.790497 
	C177.642502,191.533218 177.741516,191.277222 177.721497,190.659515 
	C177.834305,190.174774 177.888748,189.983124 178.208298,189.851227 
	C178.652664,189.937408 178.831894,189.963837 179.045471,190.344940 
	C178.885849,192.174606 178.691864,193.649597 178.497879,195.124603 
	C178.851685,195.320190 179.205490,195.515778 179.559280,195.711380 
	C180.323502,194.707245 181.087708,193.703110 182.098053,192.482300 
	C188.454315,186.890778 195.293701,182.786575 203.528320,182.129181 
	C208.607483,181.723679 213.768570,182.344101 219.284668,182.686676 
	C222.783081,183.571381 225.889709,184.273315 229.199982,185.252457 
	C230.527267,184.981339 231.650909,184.432999 232.774567,183.884659 
	C231.885986,182.905518 230.934357,181.975540 230.123627,180.935715 
	C228.918900,179.390518 223.700073,181.254318 226.317200,176.473740 
	C234.719696,177.859421 240.364670,184.118515 247.185532,188.297318 
	C248.305969,188.983765 249.344437,189.803986 250.705902,190.737106 
	C252.111389,193.181900 253.231750,195.451996 254.143036,198.311981 
	C252.487030,201.939621 251.040085,204.977371 249.593170,208.015121 
	C249.452194,209.436340 249.311234,210.857574 248.762909,212.708435 
	C245.214752,217.140808 242.073975,221.143539 238.636261,225.268738 
	C235.117706,228.855270 231.896118,232.319336 228.674515,235.783401 
	C225.582428,237.352234 222.490341,238.921051 219.398254,240.489883 
	C219.619675,241.058929 219.841080,241.627975 220.062500,242.197021 
	C222.297699,241.665955 224.514053,241.005417 226.778580,240.675583 
	C227.548706,240.563400 228.440186,241.284439 228.978561,242.134674 
	C224.475403,244.608139 220.269897,246.571686 216.064407,248.535248 
	C215.561966,248.573166 215.059509,248.611099 214.116913,248.668198 
	C213.407639,248.688965 213.263794,248.824265 213.245239,249.093277 
z"/>
<path fill="#0D0D75" opacity="1.000000" stroke="none" 
	d="
M177.943176,189.791473 
	C177.888748,189.983124 177.834305,190.174774 177.570984,190.781342 
	C177.175629,191.387009 177.038605,191.608398 176.951035,191.860397 
	C170.640244,204.161118 169.623642,216.548843 176.423080,229.022812 
	C177.434265,230.877884 178.685699,232.601990 179.827271,234.742279 
	C173.171219,234.250427 171.782089,227.832703 167.977722,223.960526 
	C166.965866,222.930634 165.552444,222.295273 163.939743,221.847275 
	C159.896027,212.266647 159.629211,202.027985 163.340256,192.225510 
	C165.905273,185.450211 170.215118,179.335388 173.749832,172.927933 
	C173.828461,172.785400 173.949738,172.576401 174.071884,172.560791 
	C180.866302,171.692841 185.355545,163.876358 193.464661,166.466812 
	C196.502014,167.437103 200.151108,167.374496 203.314072,166.743698 
	C205.259338,166.355743 206.812393,164.001129 208.771027,162.246948 
	C212.030365,161.989960 215.060226,162.015610 218.544098,162.052094 
	C220.321594,164.374420 221.634857,166.691895 222.971939,168.995529 
	C223.979050,170.730667 225.016663,172.448074 225.626297,174.573135 
	C211.082169,170.756622 197.727890,172.485367 185.566696,180.840607 
	C182.794144,182.745468 181.046555,186.142197 178.651215,188.981125 
	C178.247498,189.297821 178.070145,189.524994 177.943176,189.791473 
z"/>
<path fill="#0D0D75" opacity="1.000000" stroke="none" 
	d="
M182.988861,238.457138 
	C184.175766,238.898224 185.417130,239.680298 186.763885,240.774231 
	C185.593948,240.323425 184.318619,239.560776 182.988861,238.457138 
z"/>
<path fill="#1813C2" opacity="1.000000" stroke="none" 
	d="
M216.403198,248.694092 
	C220.269897,246.571686 224.475403,244.608139 228.981262,242.453339 
	C233.903030,238.417145 239.380585,235.229477 242.951599,230.578110 
	C248.771011,222.998123 253.345428,214.462326 258.675903,206.068268 
	C261.075012,206.399826 263.243439,206.992996 265.744385,207.749466 
	C263.581451,212.905136 261.086060,217.897507 258.027374,223.248505 
	C248.950760,235.656387 237.608673,243.956299 223.808929,248.998718 
	C221.453278,248.950119 219.097641,248.901520 216.403198,248.694092 
z"/>
<path fill="#A838E5" opacity="1.000000" stroke="none" 
	d="
M224.143753,249.041626 
	C237.608673,243.956299 248.950760,235.656387 257.754822,223.480682 
	C254.925949,227.879120 252.362106,232.952499 248.560577,236.804382 
	C242.372879,243.074066 235.084641,248.002243 225.531799,249.188065 
	C224.918106,249.181442 224.698349,249.132980 224.143753,249.041626 
z"/>
<path fill="#570AAC" opacity="1.000000" stroke="none" 
	d="
M238.933197,225.146271 
	C242.073975,221.143539 245.214752,217.140808 248.660034,212.945694 
	C249.152420,213.732727 249.846588,215.073166 249.446945,215.633606 
	C246.627975,219.586700 243.584198,223.379456 240.055267,227.140259 
	C239.309967,226.420151 239.121582,225.783203 238.933197,225.146271 
z"/>
<path fill="#9606CC" opacity="1.000000" stroke="none" 
	d="
M249.719482,208.367767 
	C251.040085,204.977371 252.487030,201.939621 254.163513,198.652496 
	C254.556229,198.390045 254.720901,198.355606 254.882294,198.367111 
	C257.422699,198.548294 258.501190,199.610107 257.317963,202.207642 
	C255.525848,206.141754 251.630371,209.583420 249.719482,208.367767 
z"/>
<path fill="#0D0D75" opacity="1.000000" stroke="none" 
	d="
M238.636246,225.268738 
	C239.121582,225.783203 239.309967,226.420151 239.736526,227.311676 
	C236.366364,230.449051 232.758026,233.331879 228.912094,235.999054 
	C231.896118,232.319336 235.117706,228.855270 238.636246,225.268738 
z"/>
<path fill="#190848" opacity="1.000000" stroke="none" 
	d="
M178.827225,188.852280 
	C181.046555,186.142197 182.794144,182.745468 185.566696,180.840607 
	C197.727890,172.485367 211.082169,170.756622 225.619003,174.952789 
	C226.085678,175.278641 226.145218,175.624588 226.260986,176.222137 
	C223.700073,181.254318 228.918900,179.390518 230.123627,180.935715 
	C230.934357,181.975540 231.885986,182.905518 232.774567,183.884659 
	C231.650909,184.432999 230.527267,184.981339 229.193146,184.892029 
	C227.718597,183.069626 226.639343,181.241699 225.157211,180.815826 
	C219.840927,179.288239 214.388336,178.234955 208.578094,176.948990 
	C205.576172,177.166306 202.887161,177.087814 200.408325,177.771454 
	C192.124863,180.055969 184.883072,183.808365 181.851929,192.698975 
	C181.087708,193.703110 180.323502,194.707245 179.559280,195.711380 
	C179.205490,195.515778 178.851685,195.320190 178.497879,195.124603 
	C178.691864,193.649597 178.885849,192.174606 179.039612,190.350159 
	C178.999420,190.000702 178.988724,190.011368 179.271912,190.021332 
	C179.917038,189.638367 180.278976,189.245438 180.640915,188.852509 
	C180.090530,188.899033 179.540161,188.945557 178.949524,188.956696 
	C178.909256,188.921326 178.827225,188.852280 178.827225,188.852280 
z"/>
<path fill="#9606CC" opacity="1.000000" stroke="none" 
	d="
M225.573410,261.869507 
	C224.522125,262.250366 223.085083,262.622437 221.245483,262.932251 
	C222.291153,262.533569 223.739395,262.197113 225.573410,261.869507 
z"/>
<path fill="#9606CC" opacity="1.000000" stroke="none" 
	d="
M215.402222,260.096313 
	C215.604492,259.776764 216.112030,259.447906 216.947556,259.173615 
	C216.752853,259.514465 216.230164,259.800720 215.402222,260.096313 
z"/>
<path fill="#9606CC" opacity="1.000000" stroke="none" 
	d="
M219.238983,258.877960 
	C219.230530,258.678497 219.476227,258.442688 219.986084,258.190094 
	C219.997864,258.396088 219.745483,258.618866 219.238983,258.877960 
z"/>
<path fill="#1813C2" opacity="1.000000" stroke="none" 
	d="
M213.354340,249.109528 
	C213.263794,248.824265 213.407639,248.688965 213.769531,248.822205 
	C213.862289,248.957031 213.463440,249.125793 213.354340,249.109528 
z"/>
<path fill="#9606CC" opacity="1.000000" stroke="none" 
	d="
M304.381470,160.057739 
	C304.563416,159.766510 305.036774,159.452591 305.811798,159.134613 
	C305.633240,159.432053 305.153076,159.733536 304.381470,160.057739 
z"/>
<path fill="#9606CC" opacity="1.000000" stroke="none" 
	d="
M302.422424,161.005798 
	C302.588684,160.727890 303.033356,160.436295 303.759766,160.127853 
	C303.594635,160.404709 303.147736,160.698395 302.422424,161.005798 
z"/>
<path fill="#570AAC" opacity="1.000000" stroke="none" 
	d="
M182.098053,192.482300 
	C184.883072,183.808365 192.124863,180.055969 200.408325,177.771454 
	C202.887161,177.087814 205.576172,177.166306 208.621979,177.314453 
	C212.347672,179.323502 215.620270,180.913727 218.892868,182.503937 
	C213.768570,182.344101 208.607483,181.723679 203.528320,182.129181 
	C195.293701,182.786575 188.454315,186.890778 182.098053,192.482300 
z"/>
<path fill="#9606CC" opacity="1.000000" stroke="none" 
	d="
M219.284668,182.686691 
	C215.620270,180.913727 212.347672,179.323502 209.031189,177.367828 
	C214.388336,178.234955 219.840927,179.288239 225.157211,180.815826 
	C226.639343,181.241699 227.718597,183.069626 228.989502,184.614807 
	C225.889709,184.273315 222.783081,183.571381 219.284668,182.686691 
z"/>
<path fill="#190848" opacity="1.000000" stroke="none" 
	d="
M178.208298,189.851227 
	C178.070145,189.524994 178.247498,189.297821 178.651215,188.981125 
	C178.827225,188.852280 178.909256,188.921326 178.937805,189.211533 
	C178.973816,189.671600 178.981262,189.841476 178.988724,190.011368 
	C178.988724,190.011368 178.999420,190.000702 179.005280,189.995483 
	C178.831894,189.963837 178.652664,189.937408 178.208298,189.851227 
z"/>
<path fill="#190848" opacity="1.000000" stroke="none" 
	d="
M177.158569,191.790497 
	C177.038605,191.608398 177.175629,191.387009 177.512604,191.074417 
	C177.741516,191.277222 177.642502,191.533218 177.158569,191.790497 
z"/>
<path fill="#000000" opacity="1.000000" stroke="none" 
	d="
M179.271912,190.021332 
	C178.981262,189.841476 178.973816,189.671600 178.978058,189.246902 
	C179.540161,188.945557 180.090530,188.899033 180.640915,188.852509 
	C180.278976,189.245438 179.917038,189.638367 179.271912,190.021332 
z"/>
</svg>