<svg version="1.1" id="Layer_1" xmlns="http://www.w3.org/2000/svg" xmlns:xlink="http://www.w3.org/1999/xlink" x="0px" y="0px"
	 width="100%" viewBox="0 0 500 500" enable-background="new 0 0 500 500" xml:space="preserve">
<path fill="#100D28" opacity="1.000000" stroke="none" 
	d="
M331.000000,501.000000 
	C222.000031,501.000000 113.500031,500.979279 5.000180,501.095398 
	C1.576357,501.099060 0.903033,500.423889 0.905298,497.000031 
	C1.013776,333.000122 1.013757,169.000153 0.905339,5.000259 
	C0.903075,1.576987 1.575755,0.903019 4.999864,0.905285 
	C168.999756,1.013775 332.999725,1.013760 496.999634,0.905354 
	C500.422638,0.903092 501.096985,1.575407 501.094727,4.999744 
	C500.986206,168.999634 500.986237,332.999603 501.094604,496.999512 
	C501.096893,500.422272 500.426117,501.105774 497.000183,501.097229 
	C441.833710,500.959534 386.666809,501.000000 331.000000,501.000000 
z"/>
<path fill="#4A3CED" opacity="1.000000" stroke="none" 
	d="
M153.212921,253.190063 
	C142.129684,237.806808 139.589157,220.660873 142.429260,202.368637 
	C144.148697,191.294266 148.369537,181.339371 155.370071,172.222931 
	C155.979279,171.858505 156.317108,171.651871 156.788116,171.138550 
	C156.959518,170.893219 156.926392,170.987366 156.880524,170.967712 
	C157.421249,170.619049 157.487122,170.008255 157.826859,169.212067 
	C158.007355,168.976120 158.013382,169.010864 157.995895,169.013153 
	C158.260361,168.754501 158.519608,168.472656 158.907837,167.925476 
	C159.090729,167.479584 159.183624,167.312439 159.468079,167.113129 
	C162.657211,165.050934 164.917221,161.757919 169.279724,161.383514 
	C172.451782,165.400269 167.872314,166.516678 166.592560,169.244553 
	C166.276276,169.711914 166.147766,169.896194 165.801254,170.333740 
	C165.134460,171.064682 164.596741,171.454056 163.987854,172.234802 
	C163.627563,172.650803 163.477905,172.813858 163.083496,173.202576 
	C160.100082,177.010651 156.967422,180.380157 156.444916,185.541748 
	C152.455994,197.153137 150.042755,208.498108 154.419739,220.610367 
	C154.664093,221.696350 154.777710,222.428574 155.105026,223.494873 
	C155.279907,224.094894 155.340576,224.338745 155.445694,224.957367 
	C155.925339,228.625229 158.318420,231.396500 157.971970,235.277908 
	C156.930099,239.191330 157.035278,242.859283 156.410156,246.421188 
	C155.988327,248.824829 155.824524,251.390900 153.212921,253.190063 
z"/>
<path fill="#EC01DB" opacity="1.000000" stroke="none" 
	d="
M356.421265,204.858002 
	C354.478668,217.454544 346.461304,224.302490 335.380737,228.820648 
	C332.817108,227.116791 332.082062,224.476990 331.131683,222.071930 
	C329.959503,219.105545 328.137634,218.152435 325.029419,218.542282 
	C321.094482,219.035812 317.117371,218.939590 313.248657,217.823059 
	C311.495514,217.317093 309.755310,216.747559 308.799072,214.554932 
	C310.240540,212.190598 312.321686,212.709976 314.242249,212.986969 
	C325.568512,214.620361 334.529480,206.626541 338.762238,197.921173 
	C340.875122,193.575638 338.732819,189.181992 338.522766,184.463913 
	C340.895203,182.075439 342.994110,183.421341 345.109741,184.316833 
	C351.645721,187.083282 354.298309,193.075012 357.378296,199.203491 
	C357.742676,200.026764 357.820282,200.526062 357.694366,201.403732 
	C357.155090,202.649750 357.000000,203.638321 356.421265,204.858002 
z"/>
<path fill="#FA32E6" opacity="1.000000" stroke="none" 
	d="
M338.642426,183.261215 
	C341.386414,190.432953 342.534821,196.766998 337.678467,203.061707 
	C332.114136,210.274048 325.724365,215.465668 316.090546,214.967224 
	C313.959564,214.856979 311.849731,214.337967 309.297546,214.015198 
	C305.409363,215.858368 303.483459,212.698532 300.591064,211.441940 
	C290.524689,203.733063 281.652008,195.211548 272.691101,186.789581 
	C271.830231,185.980453 271.180206,185.023163 270.742554,183.494049 
	C270.902588,179.867477 269.946625,176.133057 274.591675,174.798248 
	C275.160248,175.061615 275.360748,175.111786 275.860657,175.242157 
	C278.462860,175.501465 279.761688,177.227249 281.527985,178.859253 
	C283.370819,180.714859 284.952698,182.346664 286.686676,184.304016 
	C288.307861,186.619110 290.016083,188.438065 291.658386,190.726837 
	C292.603729,191.831177 293.483398,192.497620 294.707153,193.284119 
	C300.161957,198.382462 306.201813,201.738251 313.412354,203.729797 
	C317.920166,206.159882 322.504944,206.143539 326.824005,205.143082 
	C334.407593,203.386429 338.180420,196.855499 336.672028,189.224716 
	C336.351990,187.605621 335.734375,186.030716 336.132874,183.970566 
	C336.391602,183.398682 336.535889,183.188690 337.022644,182.805847 
	C337.620209,182.658066 337.875275,182.683136 338.642426,183.261215 
z"/>
<path fill="#FA32E6" opacity="1.000000" stroke="none" 
	d="
M232.281433,278.628967 
	C219.563416,283.934998 206.803131,284.832855 193.374939,281.985260 
	C190.016083,276.761292 191.859604,271.937378 194.159897,266.812012 
	C197.382126,264.899963 200.291138,265.913086 203.624176,266.478760 
	C209.617035,267.235840 215.184692,267.435272 221.179932,266.587036 
	C224.977234,266.245514 228.114258,264.191620 232.057220,265.384399 
	C235.343460,269.795288 234.170105,274.040680 232.281433,278.628967 
z"/>
<path fill="#8507CD" opacity="1.000000" stroke="none" 
	d="
M271.807861,183.585327 
	C281.466522,192.515457 290.879883,201.154648 300.581116,209.961594 
	C303.239899,213.805374 304.853882,218.023392 309.349121,220.023438 
	C311.297638,220.890366 311.621826,223.132645 311.199005,225.243347 
	C310.692413,227.772232 308.758301,228.056503 306.267456,228.132874 
	C299.154144,226.347595 293.266907,222.894547 287.412567,218.634918 
	C288.011292,213.238251 286.066650,209.542633 281.872833,206.425476 
	C278.013184,203.556717 274.840942,199.809998 271.483307,196.341553 
	C267.804565,192.541412 268.140594,187.590240 268.356689,182.473190 
	C270.107361,181.081757 270.807037,182.261703 271.807861,183.585327 
z"/>
<path fill="#7508B7" opacity="1.000000" stroke="none" 
	d="
M269.135529,181.599365 
	C268.529602,193.894928 277.033752,200.308578 284.923126,206.808792 
	C288.924561,210.105637 290.208618,213.298477 287.550995,218.137360 
	C285.632111,217.572784 284.102112,216.762726 282.241241,215.861084 
	C277.352661,215.029770 274.849182,211.149811 271.342377,208.806580 
	C269.707214,207.713959 268.277039,206.308823 266.367371,204.949066 
	C264.780792,203.537552 263.679413,202.199921 262.839966,200.217438 
	C262.551422,198.711136 262.237762,197.586639 262.054199,196.446289 
	C261.037292,190.127579 259.508362,184.137314 253.604584,180.341782 
	C252.380936,179.555099 251.610733,178.138077 250.870056,176.389511 
	C250.443726,174.238007 250.180695,172.448380 250.760773,170.282867 
	C251.098160,169.470474 251.380905,169.064957 252.056702,168.545898 
	C252.602432,168.332504 252.832535,168.288116 253.406799,168.265152 
	C253.967300,168.349197 254.183624,168.411789 254.980652,168.779449 
	C256.089050,169.442535 256.620575,169.794678 257.434784,170.293640 
	C258.066559,170.689636 258.419739,170.932098 259.036255,171.371552 
	C262.708069,174.711304 267.241699,176.706070 269.135529,181.599365 
z"/>
<path fill="#C435E9" opacity="1.000000" stroke="none" 
	d="
M259.227997,258.644775 
	C254.824600,265.521210 249.465012,270.785675 242.301971,274.573608 
	C238.587799,270.271088 240.853577,265.505280 241.056641,260.492615 
	C240.806503,257.333862 242.942596,255.844528 244.585342,253.703110 
	C244.919495,253.272156 245.068207,253.118591 245.479370,252.800842 
	C246.296738,252.512527 246.848053,252.377991 247.633392,251.640686 
	C247.924835,251.202591 247.836456,251.653564 247.643616,251.806152 
	C246.967560,252.242767 246.452942,252.385284 245.601013,252.188065 
	C243.818848,250.929886 243.368546,249.175659 242.595535,247.228790 
	C242.818665,243.963974 245.629669,242.905807 247.284088,240.538177 
	C250.313507,237.982895 252.787979,235.453247 254.731461,232.360397 
	C256.089447,230.199341 257.513367,227.847794 260.933594,227.915298 
	C263.012482,230.058334 262.871674,232.411362 262.556335,234.710892 
	C261.480011,242.560410 261.253052,250.522614 259.227997,258.644775 
z"/>
<path fill="#A936E8" opacity="1.000000" stroke="none" 
	d="
M259.305603,258.849609 
	C257.693176,251.202591 260.039825,243.630661 260.601013,235.943146 
	C260.782196,233.460938 261.356079,231.035645 260.264557,228.281982 
	C260.734894,221.198868 264.490906,215.933838 268.973175,210.720718 
	C274.442566,212.872742 277.182312,218.816681 276.402832,226.676208 
	C274.879486,234.676559 270.409027,240.910324 266.851776,247.524078 
	C264.757355,251.418091 262.036499,254.975174 259.305603,258.849609 
z"/>
<path fill="#BC04D3" opacity="1.000000" stroke="none" 
	d="
M306.118286,228.470291 
	C306.958893,226.563736 310.093231,227.367065 310.068512,224.155426 
	C310.042938,220.834412 307.475586,220.670609 305.565155,219.853485 
	C301.456482,218.096115 301.171173,214.574936 300.907959,210.527222 
	C303.314667,211.380402 305.760376,212.631454 308.535522,213.952866 
	C314.459290,217.792068 320.695404,217.656647 326.876129,216.494507 
	C329.862854,215.932907 331.426086,216.692642 331.910858,219.422623 
	C332.458405,222.505997 335.535767,224.630753 335.019165,228.449646 
	C327.360474,231.940369 319.537537,231.323883 311.679688,229.821426 
	C309.906982,229.482483 308.140808,229.109024 306.118286,228.470291 
z"/>
<path fill="#F4F4F5" opacity="1.000000" stroke="none" 
	d="
M360.663086,327.614044 
	C360.529816,328.545227 360.402435,329.416870 360.272430,329.417236 
	C355.350586,329.432098 350.368042,331.230774 345.549011,329.737305 
	C341.429657,328.460663 339.523499,323.020508 340.962036,318.400543 
	C342.271118,314.196320 346.239136,311.752747 350.627655,312.504639 
	C351.753143,312.697540 352.849304,313.061584 354.055450,313.371826 
	C354.987152,310.472748 354.437408,307.649658 354.504089,304.876312 
	C354.555176,302.753021 354.416718,301.052124 357.518188,301.081451 
	C360.396912,301.108643 360.729858,302.410980 360.701813,304.743774 
	C360.612061,312.210968 360.668030,319.679901 360.663086,327.614044 
z"/>
<path fill="#F4F4F5" opacity="1.000000" stroke="none" 
	d="
M261.109741,301.180664 
	C264.171722,300.965790 263.904938,302.817810 263.904602,304.485596 
	C263.902985,311.960846 263.826294,319.437347 263.949951,326.910553 
	C263.988281,329.225952 263.357513,330.508270 260.928833,329.991058 
	C258.192810,329.408417 255.646088,329.869141 252.938873,330.390442 
	C249.583374,331.036530 246.723541,329.402008 245.031311,326.366913 
	C243.205872,323.092926 243.215073,319.652679 245.135178,316.409454 
	C246.900192,313.428192 249.702560,312.109955 253.126724,312.399872 
	C254.551559,312.520477 255.939636,313.075287 257.854095,313.562256 
	C257.854095,310.189972 257.965485,307.063171 257.816284,303.948853 
	C257.710938,301.749847 258.535767,300.877045 261.109741,301.180664 
z"/>
<path fill="#F4F4F5" opacity="1.000000" stroke="none" 
	d="
M188.426239,329.868774 
	C184.341873,330.606934 182.759903,329.537842 182.997452,325.354065 
	C183.393219,318.383484 183.168854,311.373230 183.069595,304.381592 
	C183.037704,302.135010 183.560898,301.102295 186.093292,301.096497 
	C188.511993,301.090942 189.284027,301.858490 189.204895,304.224060 
	C189.060745,308.532623 189.163940,312.849457 189.163940,318.661560 
	C193.069534,314.335663 196.579346,311.344269 201.657379,313.315247 
	C201.632568,313.536743 201.686554,313.881531 201.552887,314.121979 
	C199.954727,316.997131 194.663223,318.168427 195.972977,321.811584 
	C196.989975,324.640411 200.831757,326.453674 204.087784,329.304810 
	C197.314224,330.303894 197.314224,330.303894 189.870728,324.638580 
	C188.401810,326.117249 189.724258,328.166168 188.426239,329.868774 
z"/>
<path fill="#7D39EC" opacity="1.000000" stroke="none" 
	d="
M152.912888,253.636398 
	C154.366119,249.417831 155.074066,245.364166 155.005020,241.173187 
	C154.971115,239.116791 155.651764,237.260727 156.822388,235.188202 
	C157.595200,234.818756 158.221756,234.752136 158.504654,235.116074 
	C163.013138,240.916046 168.112503,246.281662 171.583740,253.214310 
	C169.981461,258.560730 171.101654,264.213348 167.328583,268.881592 
	C160.862305,265.372559 157.082306,259.529114 152.912888,253.636398 
z"/>
<path fill="#F4F4F5" opacity="1.000000" stroke="none" 
	d="
M321.265625,330.251160 
	C319.570465,330.346710 318.231415,330.535278 316.945435,330.351837 
	C311.129517,329.522034 307.797058,325.357910 308.631500,320.108795 
	C309.434692,315.056427 314.569794,311.637543 320.201691,312.405487 
	C325.909363,313.183807 329.573853,317.318115 328.955811,322.471069 
	C328.438263,326.785950 325.751831,329.188965 321.265625,330.251160 
z"/>
<path fill="#0B0FE8" opacity="1.000000" stroke="none" 
	d="
M281.217102,179.855453 
	C278.843689,179.142685 277.631744,177.483917 276.267334,175.599197 
	C283.862305,165.641602 293.300293,158.374466 304.955292,153.939575 
	C317.533173,149.153503 329.534241,149.588226 341.261871,157.216614 
	C341.529236,157.711594 341.554749,157.964554 341.266235,158.433823 
	C339.699219,159.158142 338.479919,158.794739 336.893311,158.468445 
	C334.848724,158.258636 333.243408,157.718445 331.229279,157.380920 
	C329.680725,157.129166 328.545013,156.711365 327.020599,156.350708 
	C314.777405,153.550217 304.475464,156.945831 295.024963,164.703293 
	C294.691589,165.156509 294.572144,165.345047 294.287018,165.817795 
	C293.989960,166.272308 293.858612,166.442612 293.512970,166.844025 
	C293.150299,167.217178 293.001923,167.359177 292.628296,167.702591 
	C292.106049,168.162628 291.806030,168.417633 291.314423,168.888809 
	C291.000671,169.256561 290.875122,169.404175 290.562744,169.777496 
	C290.251770,170.157516 290.127625,170.311813 289.634186,170.951889 
	C289.141296,171.608978 289.017700,171.780319 288.705505,172.214325 
	C286.321411,175.045090 284.513367,177.979782 281.217102,179.855453 
z"/>
<path fill="#F4F4F5" opacity="1.000000" stroke="none" 
	d="
M163.723175,328.367310 
	C163.703430,326.262512 163.721695,324.604767 163.694443,322.947815 
	C163.653717,320.473297 163.992493,317.294098 160.568024,317.247620 
	C157.326447,317.203583 157.061340,320.120087 157.157150,322.764618 
	C157.205109,324.088806 157.116028,325.418365 157.176224,326.741547 
	C157.264923,328.691223 157.320038,330.217102 154.455368,330.119354 
	C151.972031,330.034637 150.869507,329.552246 151.050293,326.818176 
	C151.279449,323.352814 151.293320,319.847504 151.048111,316.384308 
	C150.840302,313.448914 152.008957,312.361725 154.712708,312.928070 
	C156.984756,313.404053 159.024231,313.116302 161.288422,312.531494 
	C165.503815,311.442780 169.269623,314.381256 169.688126,318.730377 
	C169.925278,321.194824 169.803818,323.698425 169.769714,326.183350 
	C169.707642,330.704773 168.455841,331.239929 163.723175,328.367310 
z"/>
<path fill="#F4F4F5" opacity="1.000000" stroke="none" 
	d="
M379.987244,330.125244 
	C373.846832,326.951813 371.890350,322.842285 373.927460,318.094543 
	C375.953888,313.371735 381.445740,311.143799 386.436157,313.003418 
	C388.385803,313.729919 389.889740,314.987488 390.868073,316.803101 
	C393.067017,320.883789 392.224182,322.245605 387.535156,322.280579 
	C386.041412,322.291687 384.532440,322.153809 383.058746,322.326141 
	C381.974182,322.452942 379.991791,321.406067 380.121307,323.688202 
	C380.211609,325.279663 381.856628,325.551941 383.158508,325.654999 
	C383.932037,325.716278 384.907806,325.515533 385.508057,325.058685 
	C387.598419,323.467651 389.950287,324.272827 390.612762,325.883148 
	C391.556488,328.177185 388.850861,329.057007 387.188873,329.744568 
	C385.053497,330.627991 382.697418,330.949890 379.987244,330.125244 
z"/>
<path fill="#F4F4F5" opacity="1.000000" stroke="none" 
	d="
M226.057068,312.847534 
	C228.087326,313.426300 229.401367,314.414001 230.426361,315.770935 
	C231.678268,317.428314 232.595795,319.473358 231.888947,321.346191 
	C231.160645,323.275848 228.960464,322.050720 227.429459,322.242523 
	C225.956497,322.427032 224.435104,322.193695 222.948929,322.314850 
	C221.953552,322.396027 220.278305,321.648895 220.244827,323.441528 
	C220.214294,325.075897 221.837982,325.396179 223.118057,325.649902 
	C224.503372,325.924500 225.640930,325.117004 226.840607,324.530029 
	C228.670364,323.634735 230.279037,324.716400 231.038269,326.031952 
	C231.895203,327.516815 230.043594,328.230347 229.066284,328.908386 
	C225.438187,331.425568 219.738602,331.044525 216.543015,328.116730 
	C213.346237,325.187866 212.478241,321.485901 214.389893,317.712067 
	C216.676971,313.197113 220.640793,311.501587 226.057068,312.847534 
z"/>
<path fill="#F4F4F5" opacity="1.000000" stroke="none" 
	d="
M277.737610,326.566956 
	C277.737427,325.280853 277.647552,324.437439 277.752899,323.619202 
	C278.204834,320.108917 276.009247,315.501617 278.824921,313.336700 
	C281.263489,311.461731 285.609894,313.008331 289.172272,312.559631 
	C293.018799,312.075134 296.166260,314.464020 296.110962,319.184448 
	C296.081757,321.679504 296.074860,324.176208 296.133240,326.670410 
	C296.178101,328.588074 296.362640,330.207092 293.443481,330.115723 
	C290.947845,330.037598 289.747406,329.536926 290.043213,326.792755 
	C290.255829,324.819855 290.079742,322.804626 290.070099,320.808350 
	C290.059906,318.694305 289.180756,317.088226 286.920990,317.198944 
	C284.783844,317.303711 283.817474,318.853912 283.826965,320.978973 
	C283.835876,322.975311 283.758789,324.974396 283.839905,326.967346 
	C283.916016,328.837372 283.757812,330.149536 281.266815,330.087006 
	C279.032135,330.030945 277.219147,330.016479 277.737610,326.566956 
z"/>
<path fill="#3A0BE5" opacity="1.000000" stroke="none" 
	d="
M356.585266,202.480209 
	C356.648499,201.596268 356.651459,201.080612 356.617737,200.179825 
	C354.917999,197.296646 354.559174,194.241653 353.006042,191.327240 
	C352.678223,190.360199 352.519684,189.695892 352.118591,188.754517 
	C351.930420,188.216309 351.861023,187.998230 351.716736,187.444351 
	C350.980194,183.138260 347.980621,180.228348 346.736694,176.132370 
	C346.216278,170.815048 342.494385,166.712906 343.019043,161.161575 
	C343.275665,160.585159 343.415619,160.372086 343.888367,159.970810 
	C356.784393,169.074539 362.527832,188.421112 357.209839,204.741943 
	C356.411682,204.343658 356.516693,203.587051 356.585266,202.480209 
z"/>
<path fill="#0B0FE8" opacity="1.000000" stroke="none" 
	d="
M170.391235,162.092163 
	C166.274017,162.646408 164.068710,166.265030 159.994141,167.055725 
	C169.683563,154.896957 182.591873,147.680298 198.504333,145.050690 
	C199.293625,145.405624 199.500076,145.810699 199.385834,146.659393 
	C195.385117,148.132904 200.346420,150.460785 198.438965,152.201172 
	C197.453979,153.409561 196.437881,154.073532 195.284424,154.187012 
	C188.415848,154.862839 182.418549,158.151810 175.762238,160.609497 
	C175.222916,160.880325 175.019333,161.010666 174.180832,161.486481 
	C173.319351,161.912445 173.092758,161.992889 172.514740,162.151703 
	C171.685364,162.277603 171.210495,162.259521 170.391235,162.092163 
z"/>
<path fill="#F4F4F5" opacity="1.000000" stroke="none" 
	d="
M117.164932,318.957886 
	C117.164886,321.779022 117.103233,324.111176 117.182961,326.438538 
	C117.255684,328.561279 117.367210,330.192627 114.237556,330.137299 
	C111.399971,330.087158 111.018150,328.983215 111.059731,326.576843 
	C111.186249,319.255981 111.191246,311.929932 111.058556,304.609283 
	C111.013176,302.105469 111.625275,301.091614 114.360695,301.085022 
	C117.110909,301.078400 117.224777,302.433258 117.189621,304.486816 
	C117.109879,309.145569 117.164780,313.806671 117.164932,318.957886 
z"/>
<path fill="#A936E8" opacity="1.000000" stroke="none" 
	d="
M167.142960,269.346985 
	C168.827148,263.978149 167.763977,258.257324 170.740417,253.143295 
	C175.881653,253.039215 178.698212,255.916779 180.775848,260.286133 
	C180.594925,263.934204 179.932007,267.115967 179.618576,270.345276 
	C179.413269,272.460602 178.863190,274.550659 176.048553,275.259766 
	C172.193939,274.322418 170.042679,271.540405 167.142960,269.346985 
z"/>
<path fill="#A936E8" opacity="1.000000" stroke="none" 
	d="
M254.108994,168.728302 
	C253.407700,168.993713 252.952316,169.013382 252.161652,169.099976 
	C247.129272,168.549881 243.976654,165.022705 239.799683,162.725189 
	C239.202759,162.239853 238.885422,161.939682 238.362579,161.390991 
	C238.007477,160.995270 237.874878,160.830170 237.567505,160.400177 
	C237.282547,159.954086 237.172348,159.772903 236.890839,159.324463 
	C234.753220,156.511688 230.790558,156.874619 229.002228,153.516815 
	C228.518250,151.854080 228.592682,150.574783 229.497147,149.035583 
	C233.241943,147.642410 235.995438,150.314514 239.569672,150.785202 
	C243.554077,153.244781 248.260757,153.514435 251.191803,157.473373 
	C249.540894,162.182236 253.871994,164.767609 254.108994,168.728302 
z"/>
<path fill="#E634E7" opacity="1.000000" stroke="none" 
	d="
M269.296967,182.041016 
	C265.466125,178.791443 261.914276,175.665237 258.164001,172.271317 
	C256.066681,168.747787 256.568542,165.581543 258.676697,162.172653 
	C264.889343,165.260422 269.740234,169.897614 274.829712,174.705200 
	C271.586945,176.832397 272.891083,180.351395 272.041016,183.480087 
	C271.227386,183.305664 270.401642,182.735046 269.296967,182.041016 
z"/>
<path fill="#E634E7" opacity="1.000000" stroke="none" 
	d="
M194.983276,265.994202 
	C193.619095,271.121307 193.564392,276.096313 193.002594,281.426270 
	C189.713577,281.620728 186.665665,280.450531 183.309845,279.169708 
	C180.604218,273.485840 181.814651,268.326294 184.581818,262.984619 
	C185.931900,262.119568 187.010544,262.126312 188.501144,262.507324 
	C191.100677,263.165222 193.334198,263.711975 194.983276,265.994202 
z"/>
<path fill="#E634E7" opacity="1.000000" stroke="none" 
	d="
M241.663177,258.665894 
	C243.925247,263.798737 241.002899,268.797394 241.987305,274.237091 
	C239.179169,276.707703 235.956619,277.848236 232.361115,278.977692 
	C232.053314,274.750946 232.117996,270.534302 232.057159,265.943665 
	C233.633453,261.319275 237.313721,259.710175 241.663177,258.665894 
z"/>
<path fill="#450AA4" opacity="1.000000" stroke="none" 
	d="
M276.536011,226.969589 
	C274.228943,221.703308 274.481018,215.461472 269.468109,211.082153 
	C267.498138,210.848404 266.600830,209.796875 265.866760,207.977814 
	C265.589661,206.348053 265.815460,205.241104 266.985840,204.080963 
	C272.123199,207.660416 276.871826,211.435394 281.765442,215.489944 
	C281.254791,219.946671 279.267517,223.520218 276.536011,226.969589 
z"/>
<path fill="#F4F4F5" opacity="1.000000" stroke="none" 
	d="
M131.107910,316.257568 
	C130.621567,312.654877 132.711121,312.971191 134.774277,312.849640 
	C137.416779,312.693909 137.171844,314.346619 137.163162,316.025513 
	C137.144379,319.662750 137.049271,323.304535 137.197449,326.935791 
	C137.288193,329.159943 136.803680,330.096649 134.273087,330.122528 
	C131.514908,330.150787 130.928452,329.108765 131.063263,326.644104 
	C131.243607,323.347321 131.107727,320.033264 131.107910,316.257568 
z"/>
<path fill="#C435E9" opacity="1.000000" stroke="none" 
	d="
M186.112274,262.571594 
	C182.666183,267.525635 184.749496,273.190155 183.033661,278.510681 
	C180.389069,278.555481 178.336304,276.903015 175.858276,275.423004 
	C177.678146,273.780914 178.072342,271.708069 177.977615,269.484924 
	C177.841858,266.299011 178.400024,263.260437 179.974213,260.075012 
	C182.993774,258.706543 184.796204,259.892761 186.112274,262.571594 
z"/>
<path fill="#C435E9" opacity="1.000000" stroke="none" 
	d="
M258.874939,161.578857 
	C259.414948,165.058762 258.264008,168.062790 257.980133,171.584442 
	C257.619324,171.971756 257.324402,171.831696 256.939331,171.378204 
	C256.582397,170.742218 256.229584,170.506119 255.465485,170.263794 
	C255.173370,170.088791 255.002029,169.988602 254.931305,169.919006 
	C254.737564,169.728958 254.614563,169.608536 254.295563,169.320038 
	C254.099548,169.151947 253.966522,169.085190 253.914810,169.029617 
	C253.846863,166.959442 251.892227,166.553894 250.850800,165.401917 
	C248.716553,163.041077 247.963074,160.718979 250.898758,158.023071 
	C253.854965,158.695267 256.555328,159.400208 258.874939,161.578857 
z"/>
<path fill="#8507CD" opacity="1.000000" stroke="none" 
	d="
M328.868958,234.697388 
	C336.593994,233.367233 343.110718,230.082062 349.205627,225.645599 
	C345.963837,232.110718 340.114777,235.201904 333.387970,237.631805 
	C331.702484,236.553772 328.890930,237.888367 328.868958,234.697388 
z"/>
<path fill="#450AA4" opacity="1.000000" stroke="none" 
	d="
M328.209137,238.329483 
	C318.958618,240.936859 311.214111,237.498917 302.954285,232.952759 
	C305.331665,231.459381 306.958984,232.850006 308.547333,232.975479 
	C310.189880,233.105240 311.802216,233.617432 313.819275,234.080460 
	C317.304047,235.879333 320.672729,236.007034 324.081787,236.017853 
	C325.757996,236.023178 327.810730,235.398499 328.209137,238.329483 
z"/>
<path fill="#450AA4" opacity="1.000000" stroke="none" 
	d="
M280.886108,161.744080 
	C282.817932,159.141708 285.472748,158.075516 288.362244,156.790344 
	C289.241608,156.508072 289.673004,156.636490 290.020508,157.501602 
	C285.398499,161.700699 280.364929,165.063919 276.364716,169.637787 
	C275.697632,170.400543 274.836487,170.881348 273.567810,170.089050 
	C274.311859,166.719635 276.828400,165.018265 279.700073,163.165115 
	C279.954224,162.918625 280.004639,162.959549 279.972321,162.962677 
	C280.286346,162.715042 280.576782,162.410904 280.886108,161.744080 
z"/>
<path fill="#F4F4F5" opacity="1.000000" stroke="none" 
	d="
M131.790070,308.296387 
	C130.337311,306.058533 130.483841,304.264252 132.486023,302.883911 
	C134.132782,301.748627 135.682083,302.220978 136.923492,303.588593 
	C137.867676,304.628815 138.253647,305.905090 137.477203,307.253387 
	C136.120544,309.609161 134.236023,309.825226 131.790070,308.296387 
z"/>
<path fill="#6608E7" opacity="1.000000" stroke="none" 
	d="
M239.690002,150.743866 
	C236.637024,151.272385 233.852173,149.262161 230.290192,148.983856 
	C225.223602,150.926361 221.020798,149.516190 216.756256,146.791840 
	C216.564392,146.118317 216.562866,145.831360 216.767517,145.166565 
	C224.878906,145.070145 232.279770,147.343826 239.690002,150.743866 
z"/>
<path fill="#7508B7" opacity="1.000000" stroke="none" 
	d="
M328.411621,238.733459 
	C327.059967,236.114914 324.793701,237.197372 323.025482,237.027527 
	C320.015411,236.738403 317.030304,236.459274 314.279663,234.542374 
	C318.886047,234.885025 323.563782,235.307770 328.668762,234.373077 
	C329.347229,236.707611 332.136597,235.394196 332.944763,237.346893 
	C331.620270,238.017273 330.199158,238.390091 328.411621,238.733459 
z"/>
<path fill="#3A0BE5" opacity="1.000000" stroke="none" 
	d="
M216.628479,144.575806 
	C216.968521,144.986557 216.963348,145.184372 216.949509,145.678894 
	C215.983826,147.254227 214.629532,147.573975 212.714233,147.533157 
	C208.427734,147.025055 204.668365,148.223755 200.433929,148.121460 
	C199.798889,147.849686 199.563843,147.699295 199.092377,147.203491 
	C198.875549,146.464661 198.895126,146.071228 198.909775,145.382568 
	C204.634384,143.328201 210.463623,143.960373 216.628479,144.575806 
z"/>
<path fill="#890A8B" opacity="1.000000" stroke="none" 
	d="
M290.376953,157.814667 
	C289.768219,157.599869 289.493713,157.317978 288.961670,156.886108 
	C291.940338,154.417053 295.541565,152.974182 299.744446,152.760239 
	C296.733368,154.422684 293.722260,156.085129 290.376953,157.814667 
z"/>
<path fill="#370DC0" opacity="1.000000" stroke="none" 
	d="
M279.600494,162.817429 
	C278.470154,165.631851 275.919128,167.361313 273.608704,169.715363 
	C271.923950,169.190689 271.928284,168.343262 273.086029,167.341965 
	C275.033569,165.657608 276.718201,163.626007 279.600494,162.817429 
z"/>
<path fill="#890A8B" opacity="1.000000" stroke="none" 
	d="
M356.500366,202.385300 
	C356.743408,202.826355 356.841278,203.540787 356.931335,204.620209 
	C356.923523,204.985184 356.604675,205.153030 356.425171,205.165924 
	C356.282196,204.338791 356.318695,203.498734 356.500366,202.385300 
z"/>
<path fill="#0B0FE8" opacity="1.000000" stroke="none" 
	d="
M157.722382,169.108459 
	C157.803833,169.539917 157.600311,170.103714 157.115723,170.807800 
	C157.035583,170.378967 157.236511,169.809875 157.722382,169.108459 
z"/>
<path fill="#0B0FE8" opacity="1.000000" stroke="none" 
	d="
M341.374756,157.587006 
	C341.951752,157.748627 342.399750,158.038605 342.743774,158.830566 
	C341.883820,159.540771 341.270508,159.360306 340.924896,158.331665 
	C341.006836,157.989914 341.245789,157.715393 341.374756,157.587006 
z"/>
<path fill="#890A8B" opacity="1.000000" stroke="none" 
	d="
M302.356934,151.677689 
	C301.908661,151.705063 301.644897,151.592880 301.381165,151.480713 
	C301.788330,151.087494 302.177155,151.065323 302.356934,151.677689 
z"/>
<path fill="#890A8B" opacity="1.000000" stroke="none" 
	d="
M304.937469,150.545212 
	C304.879272,150.546127 304.937988,150.459167 304.937988,150.459167 
	C304.937988,150.459167 304.995667,150.544296 304.937469,150.545212 
z"/>
<path fill="#3A0BE5" opacity="1.000000" stroke="none" 
	d="
M343.067139,158.889328 
	C343.391693,158.983383 343.678986,159.161896 344.093750,159.561493 
	C344.221222,159.782593 344.065796,159.928406 343.985657,159.998627 
	C343.498169,160.179657 343.161652,160.079529 342.941650,159.441986 
	C342.975708,159.150177 343.029907,158.973770 343.067139,158.889328 
z"/>
<path fill="#370DC0" opacity="1.000000" stroke="none" 
	d="
M280.659302,161.602646 
	C280.791473,161.819839 280.622070,162.204865 280.196320,162.777863 
	C280.079224,162.567368 280.218475,162.168930 280.659302,161.602646 
z"/>
<path fill="#0B0FE8" opacity="1.000000" stroke="none" 
	d="
M158.803970,167.840393 
	C158.885590,168.042191 158.711624,168.403336 158.258026,168.889984 
	C158.168411,168.676880 158.358414,168.338303 158.803970,167.840393 
z"/>
<path fill="#0B0FE8" opacity="1.000000" stroke="none" 
	d="
M156.647842,170.938995 
	C156.704391,171.199570 156.449280,171.505936 155.901245,171.912140 
	C155.850952,171.669556 156.093552,171.327164 156.647842,170.938995 
z"/>
<path fill="#450AA4" opacity="1.000000" stroke="none" 
	d="
M301.546539,231.515015 
	C301.521240,231.518250 301.571838,231.511795 301.546539,231.515015 
z"/>
<path fill="#0A0DAB" opacity="1.000000" stroke="none" 
	d="
M153.217743,222.177399 
	C148.621246,209.639282 149.497330,197.629776 154.982361,185.489838 
	C157.038208,180.625488 159.422394,176.346924 162.793610,172.263855 
	C163.050507,172.023941 163.002792,171.997971 163.014435,172.022522 
	C163.449753,171.401215 163.822845,170.709595 164.803833,170.187347 
	C165.045532,170.025406 165.000290,169.999756 165.013672,170.022003 
	C172.351013,160.575119 182.744812,156.669662 193.876785,154.040466 
	C199.723068,152.659683 205.625504,152.259338 211.602768,152.524902 
	C213.598785,152.613571 215.614822,152.531494 217.447449,154.428650 
	C218.587143,156.244568 218.763290,157.881561 218.666275,159.947235 
	C218.396347,162.814346 220.550522,166.138550 217.331924,167.564728 
	C213.308929,169.347321 208.573029,168.606674 205.538345,165.887421 
	C201.291885,162.082382 197.162415,162.687195 192.579926,163.920929 
	C176.675552,168.202881 168.633347,179.705399 164.368530,194.674423 
	C162.470505,201.336227 162.579590,208.144760 162.858093,214.965469 
	C162.871185,215.286041 162.965790,215.949768 163.045303,215.908554 
	C166.040756,214.355927 166.252075,214.275192 167.373535,217.577225 
	C169.005890,222.383499 171.608597,226.573364 174.594940,230.601181 
	C175.925034,232.395111 177.472443,233.804138 179.981277,234.582748 
	C186.848969,238.704453 192.683670,243.883133 200.208527,246.181030 
	C201.290222,246.511353 202.122116,247.437698 202.065826,249.080200 
	C201.269302,249.982864 200.543747,250.289795 199.331238,250.443207 
	C194.533813,250.920837 190.404999,249.594559 185.850891,248.479126 
	C178.997604,246.371750 172.817490,243.716843 167.005417,240.189285 
	C161.180161,236.653687 156.905914,231.849091 154.254211,225.146118 
	C154.083801,224.810547 154.043839,224.446579 154.006073,224.267426 
	C153.562378,223.608765 153.515305,223.002441 153.217743,222.177399 
z"/>
<path fill="#3A0BE5" opacity="1.000000" stroke="none" 
	d="
M154.062927,225.207367 
	C161.361298,236.037384 171.956406,242.577377 184.782776,246.573944 
	C187.665497,251.963623 190.169525,257.157532 189.266174,263.504028 
	C188.112030,263.941711 187.299271,263.891602 186.361176,263.082520 
	C184.348557,261.971405 182.626572,260.979431 180.586990,259.895264 
	C177.395889,257.626709 174.522385,255.450363 171.360443,253.106750 
	C165.958527,247.561798 161.329468,241.811371 157.334015,235.155212 
	C156.080032,231.813339 155.061035,228.708771 154.062927,225.207367 
z"/>
<path fill="#8579E4" opacity="1.000000" stroke="none" 
	d="
M217.250748,155.285736 
	C200.015305,152.115051 184.463470,155.218414 170.610321,165.658264 
	C168.893570,166.952026 167.304764,168.415604 165.341858,169.922379 
	C164.828003,166.374329 169.077530,165.669189 169.983734,162.358429 
	C170.505630,161.742874 170.968018,161.465118 171.695419,161.118347 
	C172.112640,161.169495 172.264862,161.289642 172.501373,161.131409 
	C172.585678,160.853012 172.763840,160.694016 172.873047,160.645752 
	C173.178284,160.544922 173.374329,160.492371 173.761230,160.202667 
	C181.362518,156.391052 189.039459,153.610107 197.536835,152.051819 
	C199.859512,150.087250 202.319550,149.796021 204.759445,150.111389 
	C208.493103,150.594009 212.228760,150.414780 216.397720,150.579926 
	C223.867569,152.642166 231.046143,154.305664 237.487213,158.814102 
	C237.695953,159.352692 237.674835,159.555298 237.622971,160.061935 
	C236.776108,161.018143 235.768967,161.404022 234.826065,161.098297 
	C229.075928,159.233871 222.932114,158.586685 217.250748,155.285736 
z"/>
<path fill="#8579E4" opacity="1.000000" stroke="none" 
	d="
M162.699829,172.010849 
	C160.561600,176.261444 158.072693,180.498932 155.298889,184.927582 
	C155.770279,179.800964 158.656006,175.673676 162.699829,172.010849 
z"/>
<path fill="#8579E4" opacity="1.000000" stroke="none" 
	d="
M164.695663,169.979523 
	C164.561707,170.637085 164.077896,171.248764 163.310074,171.953766 
	C162.863876,170.966599 163.242233,170.223679 164.695663,169.979523 
z"/>
<path fill="#3A0BE5" opacity="1.000000" stroke="none" 
	d="
M153.063614,222.235504 
	C153.350449,222.442947 153.646683,222.957962 153.955612,223.780624 
	C153.669891,223.573212 153.371445,223.058151 153.063614,222.235504 
z"/>
<path fill="#890A8B" opacity="1.000000" stroke="none" 
	d="
M353.871552,190.016037 
	C354.862091,193.245316 355.694397,196.193344 356.553864,199.468018 
	C354.725464,199.584442 355.021088,197.842072 354.559357,196.755203 
	C351.723480,190.079636 346.882324,185.759613 339.521881,183.830353 
	C339.154510,183.814240 339.081879,183.857285 339.085083,183.899399 
	C338.929016,183.820892 338.769745,183.700287 338.369690,183.401215 
	C337.891296,183.165787 337.653656,183.108810 337.049530,183.041718 
	C335.240784,183.929749 333.732025,183.458145 331.865845,183.135284 
	C328.633057,180.866241 325.461517,178.967453 325.039612,174.684113 
	C328.145111,172.737350 331.015564,173.395569 334.270752,174.373169 
	C336.199127,174.580994 337.691223,174.928940 339.478394,175.645386 
	C341.199036,176.296036 342.467804,177.028976 344.088440,177.861938 
	C348.144318,180.299271 351.082611,183.258331 352.806427,187.737854 
	C353.029358,188.011337 352.988037,188.008469 352.993774,187.988556 
	C353.477631,188.460312 353.484406,189.142426 353.871552,190.016037 
z"/>
<path fill="#110D2A" opacity="1.000000" stroke="none" 
	d="
M324.701294,174.663345 
	C327.142029,177.241638 329.297607,179.487076 331.762817,181.865723 
	C337.199097,186.618622 336.039520,192.133224 333.920166,197.492661 
	C331.912903,202.568634 328.327454,205.970276 322.374878,206.014130 
	C319.564240,206.034836 316.781921,205.870636 313.583588,205.352432 
	C305.863770,203.483124 299.491180,200.051682 293.957336,194.480301 
	C293.178375,189.102203 297.700104,186.775284 300.004944,182.848785 
	C302.344666,180.670990 304.685364,179.080795 307.309753,177.267700 
	C308.838715,176.264862 310.228821,175.773758 311.852539,174.895477 
	C313.428711,174.231781 314.687347,173.831345 316.415466,173.561920 
	C319.441193,173.014343 322.016479,172.872665 324.701294,174.663345 
z"/>
<path fill="#EC01DB" opacity="1.000000" stroke="none" 
	d="
M281.029419,180.168610 
	C282.384277,176.649368 285.318115,174.519211 287.394867,171.342468 
	C287.917206,170.904968 288.268311,170.687439 288.795105,170.185089 
	C289.002380,169.952164 289.004089,170.008484 288.976746,170.001648 
	C289.208282,169.791809 289.449188,169.569366 289.830536,169.139114 
	C289.988922,168.950729 290.000824,169.004181 289.974304,168.997314 
	C290.473236,168.432266 290.817383,167.697723 291.768951,167.149628 
	C291.986755,166.957062 292.002472,167.001556 291.980499,166.992981 
	C292.213867,166.785736 292.451233,166.567520 292.828857,166.146561 
	C292.987061,165.963394 293.000580,166.003235 292.981659,165.994064 
	C296.691254,162.572815 300.499054,159.287094 305.981995,158.132294 
	C309.344177,159.823929 309.984924,162.596603 309.974548,166.034210 
	C309.794189,166.648560 309.692017,166.881561 309.361267,167.412079 
	C306.685974,169.546341 303.872528,170.791855 301.094879,172.739059 
	C298.359833,174.485489 296.127380,176.300659 293.971680,178.736420 
	C291.158600,180.886612 289.669006,184.122330 285.951416,185.061111 
	C284.129974,183.529938 282.656982,181.993164 281.029419,180.168610 
z"/>
<path fill="#EC01DB" opacity="1.000000" stroke="none" 
	d="
M313.450989,205.447052 
	C314.148651,205.213715 315.138519,205.143875 316.125336,205.173782 
	C330.958771,205.623138 337.303009,196.743622 332.097412,182.384399 
	C333.418671,182.237259 334.764984,182.475601 336.397156,182.872772 
	C337.461761,187.062302 339.663971,190.809677 338.714752,195.183884 
	C336.700775,204.464706 327.849487,209.089600 316.584106,206.590561 
	C315.615326,206.375641 314.688232,205.972610 313.450989,205.447052 
z"/>
<path fill="#7D39EC" opacity="1.000000" stroke="none" 
	d="
M292.819946,177.867844 
	C294.686066,175.205536 296.906647,173.540970 299.599548,171.932281 
	C303.243225,174.125854 303.559021,176.374344 301.254395,182.641968 
	C299.662048,187.139908 295.998535,189.753204 293.929047,193.871628 
	C292.952087,193.640640 292.131317,193.083099 291.150513,192.267487 
	C290.533630,187.308319 290.566620,182.667618 292.819946,177.867844 
z"/>
<path fill="#4A3CED" opacity="1.000000" stroke="none" 
	d="
M292.665924,177.663040 
	C293.086365,182.181992 293.409790,186.931824 291.257446,191.732483 
	C289.263824,189.917786 287.537170,187.826172 285.706757,185.400650 
	C287.860046,182.669159 290.117096,180.271576 292.665924,177.663040 
z"/>
<path fill="#EC01DB" opacity="1.000000" stroke="none" 
	d="
M338.242188,183.396332 
	C338.443146,183.199951 338.710419,183.301254 339.009460,183.734100 
	C338.801544,183.901276 338.557281,183.777405 338.242188,183.396332 
z"/>
<path fill="#6608E7" opacity="1.000000" stroke="none" 
	d="
M198.787857,249.586029 
	C199.920013,249.138321 200.770981,248.988678 202.017441,248.664307 
	C202.617798,248.427826 202.822662,248.366089 203.348480,248.295319 
	C205.183807,248.692215 206.633896,248.382675 208.404510,247.809311 
	C209.953735,247.513611 211.164307,247.564896 212.753174,247.829376 
	C214.140701,248.238800 215.085754,248.702927 216.283493,249.543304 
	C218.174362,252.416870 218.987534,255.239227 218.949463,258.654968 
	C217.839035,261.746338 215.236465,261.395325 213.265167,261.954071 
	C215.764221,261.501068 218.428574,260.938446 221.323059,262.538757 
	C222.814590,264.174347 223.329865,265.701477 222.321960,267.855011 
	C216.353180,269.739655 210.563217,269.420532 204.405777,268.430786 
	C200.732147,262.552612 198.031937,256.698212 198.787857,249.586029 
z"/>
<path fill="#5209E7" opacity="1.000000" stroke="none" 
	d="
M198.646393,249.200378 
	C199.797546,255.568314 203.475250,261.041809 204.033051,267.796936 
	C201.332336,267.678558 198.615479,267.136536 195.501404,266.473145 
	C193.258026,265.620239 191.411865,264.888763 189.269836,263.979370 
	C188.530426,258.209564 184.753937,253.435059 185.035858,247.234436 
	C189.444092,247.570374 193.833893,248.341583 198.646393,249.200378 
z"/>
<path fill="#8508E6" opacity="1.000000" stroke="none" 
	d="
M222.492905,268.221985 
	C221.757431,266.636353 221.415070,265.042755 221.029694,263.047729 
	C221.522781,260.386047 223.573654,260.378845 225.218185,259.967621 
	C228.398712,259.172333 231.472061,258.128540 234.784393,256.600586 
	C238.805923,255.800888 241.341309,252.184830 245.703751,252.754883 
	C245.924332,255.536163 243.533234,256.480072 242.160706,258.520233 
	C238.791321,260.903778 235.576828,263.012787 232.146988,265.345764 
	C228.916443,266.451141 225.901230,267.332550 222.492905,268.221985 
z"/>
<path fill="#450AA4" opacity="1.000000" stroke="none" 
	d="
M251.618973,175.717346 
	C253.198120,177.478745 254.291138,179.349182 255.920425,180.315582 
	C263.340393,184.716751 262.794098,192.325394 263.900269,199.710999 
	C263.472260,200.483749 263.015900,200.666107 262.122528,200.637161 
	C252.569183,194.104492 244.128891,186.576141 234.235718,181.092270 
	C233.211624,180.524612 232.502701,179.563354 231.816284,178.164459 
	C231.383698,175.873154 230.175247,174.540543 228.713699,173.384476 
	C225.788467,171.070679 224.701248,168.209595 226.280228,164.274780 
	C227.554489,162.905670 228.939819,162.644165 230.204697,163.080872 
	C238.064209,165.794525 245.922302,168.555771 251.618973,175.717346 
z"/>
<path fill="#370DC0" opacity="1.000000" stroke="none" 
	d="
M251.892410,175.592407 
	C245.815842,172.407135 240.091019,168.212128 233.411896,165.750031 
	C231.567078,165.069977 229.648117,164.591019 227.377625,164.008667 
	C223.497772,164.626389 220.390549,163.713715 217.282867,161.385483 
	C216.978134,159.389938 216.967041,157.642242 216.947983,155.458420 
	C224.008057,155.140610 230.326218,158.140076 237.238831,160.289734 
	C237.592239,160.365952 237.776947,160.364029 237.840897,160.297379 
	C238.422119,160.431122 238.982193,160.486710 239.544205,160.974258 
	C243.628677,163.543823 247.789261,165.647018 251.546509,168.986221 
	C251.859833,171.164658 251.893250,173.162445 251.892410,175.592407 
z"/>
<path fill="#0B0D82" opacity="1.000000" stroke="none" 
	d="
M261.584076,199.937103 
	C262.404724,200.032623 262.822876,200.058670 263.552612,200.112244 
	C264.901337,201.212708 265.938538,202.285629 267.175110,203.621979 
	C267.242798,204.994507 267.111023,206.103577 266.981201,207.632141 
	C266.778076,208.203308 266.572968,208.355011 265.995178,208.600800 
	C263.290802,208.466766 261.112030,207.764511 258.821228,206.288605 
	C257.758057,203.232330 258.746094,201.239594 261.584076,199.937103 
z"/>
<path fill="#A936E8" opacity="1.000000" stroke="none" 
	d="
M255.301971,170.306641 
	C255.646713,170.284866 256.120056,170.480942 256.695587,170.925018 
	C256.342072,170.956848 255.886322,170.740677 255.301971,170.306641 
z"/>
<path fill="#A936E8" opacity="1.000000" stroke="none" 
	d="
M254.170776,169.320953 
	C254.342896,169.210251 254.541702,169.337845 254.778275,169.692062 
	C254.604538,169.815277 254.398346,169.695465 254.170776,169.320953 
z"/>
<path fill="#8508E6" opacity="1.000000" stroke="none" 
	d="
M218.333725,259.383423 
	C217.669418,256.247833 215.762085,253.721848 216.152466,250.273010 
	C216.843292,249.004501 217.766281,248.622742 218.781281,248.632538 
	C228.329651,248.724564 236.310974,244.768326 243.633789,239.083206 
	C244.305481,238.561722 245.076141,238.304260 246.319275,238.363739 
	C247.495743,238.804367 247.918945,239.455322 248.151428,240.660995 
	C247.601868,243.822678 244.861740,244.550278 243.083435,246.617920 
	C242.114197,250.193756 238.845947,250.890869 236.410065,252.990570 
	C232.139801,255.338867 228.154694,257.424225 223.922272,258.984070 
	C222.212021,259.614380 220.505875,260.412506 218.333725,259.383423 
z"/>
<path fill="#BC04D3" opacity="1.000000" stroke="none" 
	d="
M248.478104,240.992004 
	C247.738251,240.526627 247.323288,239.989655 246.800018,239.124619 
	C246.457901,235.921341 249.276306,234.962921 250.522263,232.637360 
	C250.773346,232.161682 250.880295,231.975128 251.170380,231.525314 
	C251.483734,231.095581 251.613922,230.929138 252.158478,230.299469 
	C253.172256,229.305405 253.738892,228.743683 254.370117,227.850006 
	C254.617188,227.433746 254.707153,227.262329 254.944763,226.842560 
	C255.292007,226.265778 255.489716,225.936188 255.814026,225.342896 
	C256.027863,224.902100 256.112823,224.723679 256.322998,224.273132 
	C256.617706,223.626450 256.787872,223.252197 257.081726,222.578644 
	C259.816833,217.567657 262.330170,212.796692 265.833374,208.264984 
	C266.118011,208.078674 266.549774,208.036987 266.766479,208.044296 
	C267.611969,208.827835 268.240814,209.604065 269.019653,210.649200 
	C266.205719,216.396515 263.241791,221.874924 260.138245,227.666107 
	C255.946411,232.015594 254.229752,238.072800 248.478104,240.992004 
z"/>
<path fill="#E634E7" opacity="1.000000" stroke="none" 
	d="
M235.658493,252.087341 
	C238.049057,250.178482 240.182907,248.690567 242.611511,247.051727 
	C245.620590,247.285355 244.686829,249.990433 245.929504,251.740417 
	C246.250046,252.250458 246.415482,252.429810 246.273529,252.807846 
	C245.966125,253.006516 246.002594,253.011475 246.004364,252.993347 
	C242.895554,254.579193 239.784988,256.183167 236.331787,257.863647 
	C234.403961,256.279755 234.300766,254.459106 235.658493,252.087341 
z"/>
<path fill="#8508E6" opacity="1.000000" stroke="none" 
	d="
M246.287949,252.989624 
	C245.966125,253.006516 246.003052,252.535706 246.043823,252.303406 
	C246.850769,251.739792 247.616928,251.408478 248.684753,251.034546 
	C248.463364,251.975113 247.764877,252.747849 246.287949,252.989624 
z"/>
<path fill="#8508E6" opacity="1.000000" stroke="none" 
	d="
M251.494446,247.524002 
	C251.489700,247.505020 251.499191,247.542984 251.494446,247.524002 
z"/>
<path fill="#8508E6" opacity="1.000000" stroke="none" 
	d="
M249.004959,251.007782 
	C249.122437,250.700058 249.314087,250.444595 249.785675,250.120193 
	C249.842987,250.283691 249.644516,250.531448 249.188858,250.863617 
	C248.986435,250.991913 249.000214,251.000809 249.004959,251.007782 
z"/>
<path fill="#8508E6" opacity="1.000000" stroke="none" 
	d="
M250.004700,250.007477 
	C250.009369,250.014175 250.195816,249.643051 250.195816,249.643051 
	C250.195816,249.643051 250.176010,249.881699 250.081329,249.936890 
	C249.986664,249.992065 250.000015,250.000763 250.004700,250.007477 
z"/>
<path fill="#110D2A" opacity="1.000000" stroke="none" 
	d="
M347.406494,319.508057 
	C349.543915,317.164978 351.632874,316.999573 353.601715,318.916107 
	C354.884796,320.165100 354.994049,321.812866 354.078278,323.424011 
	C353.000885,325.319489 351.247040,325.590942 349.417877,325.025177 
	C346.793152,324.213348 346.676788,322.126160 347.406494,319.508057 
z"/>
<path fill="#110D2A" opacity="1.000000" stroke="none" 
	d="
M256.325378,318.337708 
	C258.099548,320.255341 258.487030,322.012939 257.016785,323.895203 
	C255.823868,325.422394 254.220901,325.476654 252.568588,325.008362 
	C250.952423,324.550385 250.041290,323.227936 250.160507,321.688019 
	C250.445816,318.002625 252.644684,317.025421 256.325378,318.337708 
z"/>
<path fill="#110D2A" opacity="1.000000" stroke="none" 
	d="
M316.508118,324.675537 
	C314.658081,322.788269 314.434784,320.965576 315.698639,319.107422 
	C316.628571,317.740204 318.067657,317.514404 319.619812,317.759033 
	C321.311737,318.025665 322.411011,319.200989 322.496033,320.686218 
	C322.726105,324.703522 320.471802,325.810760 316.508118,324.675537 
z"/>
<path fill="#8508E6" opacity="1.000000" stroke="none" 
	d="
M326.000732,154.695984 
	C327.735443,155.059540 329.054016,155.271255 330.738251,155.649475 
	C333.578217,158.696854 335.101624,161.825714 333.406860,166.077972 
	C328.657471,168.286728 324.263672,166.900864 319.455658,165.907669 
	C316.756622,163.070389 315.635193,160.050308 316.094177,156.123322 
	C319.112640,153.301163 322.484558,155.018890 326.000732,154.695984 
z"/>
<path fill="#5209E7" opacity="1.000000" stroke="none" 
	d="
M342.689758,159.070770 
	C343.115509,159.414383 343.303467,159.638138 343.722565,159.945129 
	C343.739685,165.566452 348.050232,169.879883 347.926880,175.771088 
	C347.236511,176.507156 346.555389,176.443863 345.541199,176.136292 
	C343.274384,175.065277 341.988678,173.342560 340.164978,171.697815 
	C339.614868,171.038193 339.344879,170.624283 338.948883,169.843460 
	C338.129517,165.531311 335.085175,162.025375 336.744904,157.354034 
	C338.094452,157.340256 339.205444,157.629974 340.661621,157.954803 
	C341.472504,158.323730 341.938141,158.657562 342.689758,159.070770 
z"/>
<path fill="#6608E7" opacity="1.000000" stroke="none" 
	d="
M336.610138,156.983368 
	C337.996277,161.040253 339.009094,165.029968 340.028564,169.409424 
	C338.644836,171.015137 337.330475,170.107773 335.653900,169.542419 
	C334.119934,168.949219 333.188141,168.215622 332.872742,166.552032 
	C333.545929,162.763443 331.250732,159.906494 331.084473,156.228333 
	C332.814880,156.182724 334.525848,156.549454 336.610138,156.983368 
z"/>
<path fill="#8579E4" opacity="1.000000" stroke="none" 
	d="
M326.139038,154.630615 
	C323.464020,154.994431 320.511169,155.141037 317.191864,155.464935 
	C314.086914,158.772858 310.504547,159.118652 306.306213,158.795074 
	C301.230713,160.195099 297.651337,163.430939 293.312256,165.970749 
	C292.866882,163.721405 294.835541,163.059250 296.182861,162.017853 
	C304.969330,155.226334 314.836151,152.528763 326.139038,154.630615 
z"/>
<path fill="#8579E4" opacity="1.000000" stroke="none" 
	d="
M291.643036,166.908325 
	C291.503754,167.579498 291.020752,168.201950 290.242798,168.907440 
	C289.812256,167.908478 290.349640,167.253281 291.643036,166.908325 
z"/>
<path fill="#8579E4" opacity="1.000000" stroke="none" 
	d="
M292.680542,165.950745 
	C292.827820,166.275406 292.668579,166.587402 292.233948,166.941895 
	C292.097015,166.635635 292.235504,166.286850 292.680542,165.950745 
z"/>
<path fill="#8579E4" opacity="1.000000" stroke="none" 
	d="
M289.704742,168.981018 
	C289.815826,169.251434 289.642731,169.552139 289.209534,169.923828 
	C289.106476,169.666992 289.263519,169.339157 289.704742,168.981018 
z"/>
<path fill="#8579E4" opacity="1.000000" stroke="none" 
	d="
M288.689270,170.025421 
	C288.728668,170.279205 288.454926,170.606262 287.855438,170.998016 
	C287.811829,170.741379 288.093994,170.420044 288.689270,170.025421 
z"/>
<path fill="#110D2A" opacity="1.000000" stroke="none" 
	d="
M381.325745,318.966156 
	C379.369965,318.259308 380.059967,317.510925 380.983704,316.960510 
	C382.580597,316.008972 382.696472,316.082245 386.236572,318.611450 
	C384.353180,318.763214 383.032349,318.869659 381.325745,318.966156 
z"/>
<path fill="#110D2A" opacity="1.000000" stroke="none" 
	d="
M222.232498,318.976807 
	C221.308044,318.790833 220.165176,319.267700 220.331329,318.331390 
	C220.660126,316.478394 222.233566,316.193176 223.777100,316.536316 
	C224.500443,316.697144 225.345993,317.289459 225.689316,317.926880 
	C226.106796,318.701965 225.346741,318.973999 224.615112,318.967316 
	C223.948669,318.961212 223.282059,318.973450 222.232498,318.976807 
z"/>
<path fill="#A936E8" opacity="1.000000" stroke="none" 
	d="
M345.652466,175.352142 
	C346.444916,175.423569 346.931458,175.668533 347.660553,176.047852 
	C349.851471,179.770874 352.599487,182.980682 353.084778,187.623795 
	C349.827484,185.530624 347.955414,181.625580 343.970337,179.494019 
	C343.649109,177.724731 344.086151,176.448578 345.652466,175.352142 
z"/>
<path fill="#A936E8" opacity="1.000000" stroke="none" 
	d="
M354.034454,189.948990 
	C353.694977,189.740585 353.360168,189.183868 353.012451,188.297913 
	C353.346069,188.512665 353.692596,189.056671 354.034454,189.948990 
z"/>
<path fill="#3A0BE5" opacity="1.000000" stroke="none" 
	d="
M218.198090,152.195724 
	C211.633942,151.461945 205.239594,152.026505 198.384109,151.981873 
	C198.251801,149.767471 196.783310,148.990982 193.859299,148.624237 
	C196.128464,147.779114 197.173065,147.390060 198.536804,146.929550 
	C198.855957,146.858093 198.973679,146.959045 199.035873,147.005341 
	C203.076157,148.079880 207.156052,146.632660 211.553223,147.572083 
	C214.229187,147.910324 216.417068,148.392822 218.208710,150.605255 
	C218.404465,151.266373 218.409286,151.548798 218.198090,152.195724 
z"/>
<path fill="#4A3CED" opacity="1.000000" stroke="none" 
	d="
M173.753021,160.010544 
	C173.860245,160.252213 173.675476,160.453476 173.190033,160.583389 
	C173.088791,160.328278 173.279358,160.147644 173.753021,160.010544 
z"/>
<path fill="#4A3CED" opacity="1.000000" stroke="none" 
	d="
M172.418579,160.867737 
	C172.585678,160.853012 172.535385,161.271240 172.535385,161.271240 
	C172.535385,161.271240 172.139557,161.303879 172.049988,161.176605 
	C171.960434,161.049347 172.251480,160.882477 172.418579,160.867737 
z"/>
<path fill="#7D39EC" opacity="1.000000" stroke="none" 
	d="
M218.212097,151.297791 
	C216.112625,150.486618 214.340744,149.899155 212.238342,149.182266 
	C211.384506,148.328522 211.218307,147.545547 211.749756,146.336899 
	C213.359879,145.987518 214.739395,145.987122 216.529892,145.981171 
	C220.726501,148.117874 225.189972,147.355164 229.513184,148.897186 
	C229.920547,150.357422 229.948334,151.740982 229.980545,153.538879 
	C225.889175,154.463882 222.427902,151.988007 218.212097,151.297791 
z"/>
<path fill="#8508E6" opacity="1.000000" stroke="none" 
	d="
M217.909348,151.445587 
	C222.070114,150.295059 225.615097,152.319138 229.647705,153.819305 
	C232.720093,155.539764 236.445740,155.444275 237.937836,158.958359 
	C231.620880,156.208786 225.150146,154.401474 218.290894,152.697830 
	C217.966125,152.312515 217.950165,152.064804 217.909348,151.445587 
z"/>
<path fill="#8579E4" opacity="1.000000" stroke="none" 
	d="
M239.515686,160.982681 
	C239.111053,161.064117 238.629089,160.880585 238.026001,160.463882 
	C238.416016,160.393051 238.927200,160.555374 239.515686,160.982681 
z"/>
<path fill="#6608E7" opacity="1.000000" stroke="none" 
	d="
M211.537323,145.979630 
	C211.957047,146.753464 211.933762,147.519012 211.909134,148.668701 
	C207.828873,148.558594 203.749939,148.064331 199.384537,147.310852 
	C203.136093,147.127762 207.013947,145.425385 211.537323,145.979630 
z"/>
<path fill="#110D2A" opacity="1.000000" stroke="none" 
	d="
M261.869202,199.690826 
	C260.985687,201.709747 259.984833,203.412903 258.932709,205.450012 
	C259.473663,208.100327 258.382355,210.028885 257.305573,211.871887 
	C253.044998,219.164230 248.878403,226.556168 243.404190,233.016510 
	C236.528336,241.130981 228.419922,247.479752 217.096924,249.099640 
	C216.129654,249.366821 215.489182,249.508163 214.507843,249.345474 
	C212.461639,249.189316 210.725204,249.115479 208.472046,249.113602 
	C206.558014,249.715500 205.111221,249.441971 203.302490,249.241791 
	C202.923309,249.034805 202.711517,248.721649 202.562225,248.605621 
	C194.198151,246.136658 186.948746,242.062302 180.368103,236.114639 
	C171.791962,229.677826 169.310898,220.358582 169.651718,211.069016 
	C170.995819,174.436417 204.042953,164.316467 229.164841,175.108551 
	C230.407196,175.642258 231.467224,176.440506 232.538391,177.862274 
	C243.139740,184.300735 252.815643,191.332214 261.869202,199.690826 
z"/>
<path fill="#0B0D82" opacity="1.000000" stroke="none" 
	d="
M232.841461,177.792969 
	C224.597229,174.898941 216.335403,172.564453 207.257462,172.867661 
	C189.246948,173.469254 174.436218,186.705444 171.837585,204.501221 
	C170.143860,216.100006 173.289200,226.052063 180.014862,235.602264 
	C172.671127,234.085419 170.353302,227.497208 167.156998,221.815933 
	C166.046082,219.841324 165.608978,217.487610 164.680573,214.769730 
	C163.417450,217.532745 164.349518,219.830673 164.605759,222.452332 
	C161.314911,218.138092 159.881134,208.473465 161.189423,201.041611 
	C162.821426,191.770950 165.880539,183.072449 171.700195,175.547073 
	C178.832001,166.324936 188.478668,161.883835 199.932266,161.033737 
	C202.167877,160.867798 204.086288,161.100571 205.235977,163.656937 
	C206.027206,165.416306 215.080917,167.615570 216.650482,166.746475 
	C219.162399,165.355606 216.708130,163.496857 217.008942,161.512421 
	C220.286163,161.373123 223.394699,162.358276 226.725769,163.757599 
	C226.753876,167.624680 226.533783,171.107727 230.971451,172.783081 
	C232.773163,173.463287 233.135742,175.478027 232.841461,177.792969 
z"/>
<path fill="#FA32E6" opacity="1.000000" stroke="none" 
	d="
M332.497467,166.158630 
	C333.732300,166.787811 334.549103,167.388123 335.671997,168.061066 
	C337.691650,170.609772 337.188904,172.960739 335.280212,175.554855 
	C331.937958,175.529007 328.891876,175.197372 325.416138,174.930969 
	C322.289429,174.169815 319.596344,174.942337 316.451202,174.983521 
	C313.296356,172.151123 313.888641,168.986023 315.256348,165.356750 
	C316.325745,164.249695 317.254089,164.079224 318.720093,164.454376 
	C323.516388,164.757996 327.845093,165.033646 332.497467,166.158630 
z"/>
<path fill="#E634E7" opacity="1.000000" stroke="none" 
	d="
M335.331726,175.991272 
	C335.309723,173.542969 335.635468,171.225281 335.969666,168.520645 
	C337.125458,168.641998 338.272766,169.150299 339.727661,169.728882 
	C340.274628,170.042068 340.514008,170.284973 340.895386,170.740204 
	C342.245941,173.004944 342.560486,175.009628 340.329681,177.150330 
	C338.519501,176.974930 337.099487,176.548401 335.331726,175.991272 
z"/>
<path fill="#C435E9" opacity="1.000000" stroke="none" 
	d="
M340.164490,177.601456 
	C340.298370,175.522827 340.657166,173.644196 341.026703,171.359039 
	C343.022247,171.642654 343.903625,173.581314 345.683105,174.996887 
	C345.865173,176.595490 345.245880,177.773468 344.033142,179.021057 
	C342.633636,178.756577 341.511536,178.279022 340.164490,177.601456 
z"/>
<path fill="#A936E8" opacity="1.000000" stroke="none" 
	d="
M301.482727,183.016174 
	C299.230713,179.620941 302.487854,175.841339 300.169525,172.095551 
	C302.068512,169.729019 304.805786,168.608856 307.714539,167.120163 
	C310.592926,170.366272 309.648499,173.845810 308.315430,177.747437 
	C306.100555,179.763657 303.959808,181.368439 301.482727,183.016174 
z"/>
<path fill="#E634E7" opacity="1.000000" stroke="none" 
	d="
M315.688568,164.840149 
	C316.030121,168.101929 316.014923,171.079208 316.000305,174.503830 
	C314.921936,175.306396 313.843048,175.661636 312.420105,176.032333 
	C307.196106,173.564545 310.155640,170.024536 311.043732,166.387543 
	C312.341278,164.720795 313.655701,164.121887 315.688568,164.840149 
z"/>
<path fill="#C435E9" opacity="1.000000" stroke="none" 
	d="
M311.710083,165.876007 
	C312.423126,169.216187 309.921936,172.243271 311.811554,175.763535 
	C311.006683,176.706512 309.937225,177.365219 308.554565,178.091400 
	C306.169617,174.777893 308.920685,171.290146 308.026794,167.444260 
	C308.039734,167.005157 308.467590,166.928741 308.683777,166.906708 
	C309.647736,166.314499 310.330841,165.607040 311.710083,165.876007 
z"/>
<path fill="#BC04D3" opacity="1.000000" stroke="none" 
	d="
M312.364929,165.980682 
	C311.202850,166.321716 310.380920,166.601135 309.229492,166.882599 
	C308.821503,164.139633 307.905304,161.669128 306.179169,159.128235 
	C309.023102,156.961884 312.464722,156.145050 316.434509,155.709244 
	C317.577515,158.400894 318.329620,161.159531 319.125366,164.281158 
	C318.388733,164.773972 317.608398,164.903824 316.436707,165.079163 
	C314.931885,165.389435 313.818451,165.654251 312.364929,165.980682 
z"/>
<path fill="#FA32E6" opacity="1.000000" stroke="none" 
	d="
M235.572723,251.794998 
	C235.941437,253.464325 235.967667,255.262253 235.991516,257.500153 
	C231.450531,260.228546 226.616257,261.534760 221.298187,262.457489 
	C217.443542,262.646332 213.900436,262.646332 209.791672,262.646332 
	C212.399261,260.703125 215.120285,260.561371 217.770264,259.343964 
	C224.327621,258.034180 229.568878,254.477859 235.572723,251.794998 
z"/>
<path fill="#8579E4" opacity="1.000000" stroke="none" 
	d="
M214.329147,249.394653 
	C214.479248,249.117676 214.782410,249.039215 215.284973,249.017303 
	C227.026428,247.573380 236.570984,241.942612 245.334442,234.667297 
	C247.073990,233.223160 248.532074,231.204575 251.553741,231.670288 
	C251.699951,235.031921 248.595749,236.038437 246.908020,238.528473 
	C242.207367,241.621414 238.168823,245.115936 233.131042,247.111557 
	C227.928329,249.172516 222.673996,250.432297 216.630615,249.865845 
	C215.619690,249.754684 215.039948,249.640411 214.329147,249.394653 
z"/>
<path fill="#5209E7" opacity="1.000000" stroke="none" 
	d="
M203.175812,249.275696 
	C204.323959,249.050140 205.724594,249.065475 207.540283,249.133179 
	C206.521591,250.325348 204.997131,250.224350 203.175812,249.275696 
z"/>
<path fill="#0B0FE8" opacity="1.000000" stroke="none" 
	d="
M251.917725,231.875336 
	C249.813202,231.602295 249.206360,233.502609 248.046799,234.541824 
	C238.993362,242.655533 229.177322,249.078918 215.936676,249.064514 
	C238.332977,243.386063 248.339737,224.810760 258.660889,206.056946 
	C261.275452,205.729492 263.583099,205.981003 265.804382,207.864105 
	C265.189819,213.900711 260.840393,217.968460 258.214844,223.264435 
	C257.879211,223.896866 257.687622,224.258652 257.204132,224.805023 
	C256.987854,225.028549 257.024414,225.018997 257.023987,225.000107 
	C256.575378,225.408600 256.508484,226.001175 256.144196,226.763153 
	C255.944946,226.975098 256.001831,226.994247 255.979965,226.973572 
	C255.014404,228.077988 254.186737,229.287460 253.157089,230.735825 
	C252.941269,230.964661 252.996765,231.000549 252.977188,230.973999 
	C252.783508,231.217987 252.569229,231.451691 252.133087,231.803314 
	C251.951431,231.958115 251.944397,231.893723 251.917725,231.875336 
z"/>
<path fill="#8579E4" opacity="1.000000" stroke="none" 
	d="
M253.260956,230.868500 
	C252.527130,228.937119 254.060806,228.017792 255.604980,226.928223 
	C255.997467,228.743835 254.688461,229.695465 253.260956,230.868500 
z"/>
<path fill="#8579E4" opacity="1.000000" stroke="none" 
	d="
M256.239990,226.853745 
	C255.616745,226.261215 256.007202,225.750992 256.728546,225.116074 
	C256.860718,225.564941 256.697876,226.148666 256.239990,226.853745 
z"/>
<path fill="#8579E4" opacity="1.000000" stroke="none" 
	d="
M257.306946,224.906494 
	C257.149475,224.645309 257.311096,224.262070 257.727783,223.684296 
	C257.863953,223.921326 257.745026,224.352875 257.306946,224.906494 
z"/>
<path fill="#8579E4" opacity="1.000000" stroke="none" 
	d="
M252.217453,231.912857 
	C252.069305,231.584503 252.187195,231.210892 252.631348,230.892365 
	C252.799576,231.254166 252.641525,231.560883 252.217453,231.912857 
z"/>
<path fill="#BC04D3" opacity="1.000000" stroke="none" 
	d="
M214.782013,177.701660 
	C220.829086,178.444809 226.077026,180.560196 231.902756,184.917084 
	C225.560501,184.115753 220.918259,181.941864 215.502197,181.743958 
	C213.871735,180.604370 213.767166,179.359619 214.782013,177.701660 
z"/>
<path fill="#450AA4" opacity="1.000000" stroke="none" 
	d="
M241.411301,225.757446 
	C238.616730,232.928665 232.123154,235.589371 225.853729,238.560608 
	C230.502686,236.061127 233.345291,231.568237 237.559235,228.137421 
	C238.132965,227.792908 238.399582,227.577972 238.807663,227.141388 
	C238.962112,226.935867 238.993393,226.997391 238.963684,226.979843 
	C239.210648,226.786606 239.455917,226.574554 239.811218,226.127533 
	C239.952682,225.928925 239.965637,226.005447 239.942688,225.974121 
	C240.265945,225.629379 240.670181,225.505920 241.411301,225.757446 
z"/>
<path fill="#EC01DB" opacity="1.000000" stroke="none" 
	d="
M250.809357,207.187347 
	C251.949371,204.414398 253.000854,202.057220 254.113632,199.729340 
	C254.598831,198.714371 255.056107,197.508698 256.565399,198.721344 
	C257.520935,199.489105 258.351074,200.154617 257.528076,201.522903 
	C256.363586,203.458954 255.260086,205.431641 253.910431,207.663361 
	C252.602036,208.803589 251.611221,208.780350 250.809357,207.187347 
z"/>
<path fill="#BC04D3" opacity="1.000000" stroke="none" 
	d="
M250.573563,206.936890 
	C251.353210,207.602463 252.123459,207.886002 253.365997,207.911209 
	C251.534241,211.434052 249.378113,214.930023 246.949402,218.635941 
	C246.449020,218.937881 246.221207,219.029861 245.745209,218.849106 
	C245.182983,217.846802 245.352295,217.137024 245.705780,216.082153 
	C247.309204,212.861008 248.791656,209.987549 250.573563,206.936890 
z"/>
<path fill="#450AA4" opacity="1.000000" stroke="none" 
	d="
M206.319702,181.368103 
	C200.651459,182.073547 195.567764,183.772156 190.241684,185.573212 
	C189.769470,185.200409 189.594604,184.938797 189.644348,184.262054 
	C189.868942,183.846909 189.932587,183.860001 189.925201,183.891632 
	C191.825104,181.972748 194.463791,181.214203 197.027939,179.640259 
	C199.289841,178.912079 201.331665,178.914764 203.621399,178.209213 
	C204.529236,178.098328 205.045349,178.162781 205.884491,178.542709 
	C206.715988,179.466965 206.806702,180.233032 206.319702,181.368103 
z"/>
<path fill="#8507CD" opacity="1.000000" stroke="none" 
	d="
M206.149170,179.305664 
	C205.460083,179.127121 205.034668,179.131119 204.290237,179.140167 
	C203.671295,178.746841 203.543015,178.299301 203.812775,177.519470 
	C207.421844,176.742889 210.808655,176.556656 214.645294,177.260788 
	C215.091431,178.601273 215.097733,179.777924 215.098785,181.308640 
	C214.016495,181.660461 212.939438,181.658188 211.477448,181.527374 
	C209.727798,180.283890 207.690643,180.816025 206.149170,179.305664 
z"/>
<path fill="#370DC0" opacity="1.000000" stroke="none" 
	d="
M197.373199,179.870010 
	C195.415054,182.179794 193.037033,183.065826 190.272827,183.910065 
	C190.633911,180.410370 193.998947,180.396225 196.715057,179.013397 
	C197.242706,179.167816 197.410431,179.358429 197.373199,179.870010 
z"/>
<path fill="#7508B7" opacity="1.000000" stroke="none" 
	d="
M197.562988,180.137787 
	C197.140121,179.989746 197.111984,179.788483 197.079422,179.282227 
	C199.151108,178.374069 201.227203,177.770935 203.671280,177.202087 
	C204.018234,177.659561 203.997223,178.082733 203.973709,178.825562 
	C202.142242,180.581970 199.958679,179.748642 197.562988,180.137787 
z"/>
<path fill="#7508B7" opacity="1.000000" stroke="none" 
	d="
M241.998871,225.809799 
	C241.297424,225.953995 240.904663,225.965439 240.215820,225.959839 
	C239.153870,224.249725 240.709412,223.411407 241.573608,222.005081 
	C242.613754,221.656418 243.348297,221.264282 244.380402,221.759888 
	C244.629257,223.674408 243.336639,224.594421 241.998871,225.809799 
z"/>
<path fill="#450AA4" opacity="1.000000" stroke="none" 
	d="
M188.283508,186.018967 
	C187.562790,188.663895 185.375092,188.939148 183.440643,190.018021 
	C183.664520,187.714325 185.428955,186.380325 187.474518,184.897888 
	C188.019608,185.024872 188.262024,185.281372 188.283508,186.018967 
z"/>
<path fill="#7508B7" opacity="1.000000" stroke="none" 
	d="
M205.926819,179.441513 
	C207.695145,179.306778 209.968582,178.005997 211.040527,181.058105 
	C209.698471,181.522369 208.304443,181.645920 206.491592,181.728165 
	C206.037903,181.044540 206.003036,180.402222 205.926819,179.441513 
z"/>
<path fill="#8507CD" opacity="1.000000" stroke="none" 
	d="
M244.708832,221.879913 
	C243.797989,222.026505 242.985504,222.107864 242.013947,221.992203 
	C242.996292,219.902618 244.137711,218.010071 245.552948,215.925995 
	C245.899841,216.477112 245.972946,217.219772 246.082825,218.333771 
	C246.054672,219.593964 245.874893,220.448822 245.104797,221.394928 
	C244.831100,221.579895 244.807190,221.814697 244.708832,221.879913 
z"/>
<path fill="#7508B7" opacity="1.000000" stroke="none" 
	d="
M245.129227,221.525024 
	C245.108917,220.783096 245.386734,219.986298 245.892090,218.947327 
	C246.119629,218.705139 246.403656,218.755173 246.540253,218.800537 
	C246.895004,220.022812 246.121811,220.727722 245.129227,221.525024 
z"/>
<path fill="#370DC0" opacity="1.000000" stroke="none" 
	d="
M188.311005,186.386826 
	C188.022903,186.210190 187.983246,185.920303 187.860382,185.199402 
	C188.277771,184.370575 188.778366,183.972763 189.573944,183.710938 
	C189.892532,184.115036 189.916122,184.383179 189.942017,185.056686 
	C189.482712,185.732559 189.021103,186.003082 188.311005,186.386826 
z"/>
<path fill="#450AA4" opacity="1.000000" stroke="none" 
	d="
M183.261139,190.210831 
	C183.105209,190.694229 182.647919,191.442245 182.564072,191.402512 
	C181.966690,191.119293 182.175598,190.640472 182.677124,190.057800 
	C182.877594,189.908325 183.132645,190.110809 183.261139,190.210831 
z"/>
<path fill="#7508B7" opacity="1.000000" stroke="none" 
	d="
M239.620193,225.847931 
	C239.770401,226.208069 239.588120,226.487228 239.169922,226.864349 
	C239.051880,226.563843 239.169800,226.165390 239.620193,225.847931 
z"/>
<path fill="#7508B7" opacity="1.000000" stroke="none" 
	d="
M238.645172,226.906693 
	C238.758133,227.220093 238.554153,227.504333 238.101746,227.890121 
	C238.011612,227.620285 238.169907,227.248901 238.645172,226.906693 
z"/>
</svg>